<?xml version="1.0" encoding="UTF-8"?>
<!DOCTYPE svg PUBLIC "-//W3C//DTD SVG 1.1//EN" "http://www.w3.org/Graphics/SVG/1.1/DTD/svg11.dtd">
<!-- Creator: CorelDRAW 2020 (64-Bit) -->
<svg xmlns="http://www.w3.org/2000/svg" xml:space="preserve" width="114px" height="26px" version="1.1" style="shape-rendering:geometricPrecision; text-rendering:geometricPrecision; image-rendering:optimizeQuality; fill-rule:evenodd; clip-rule:evenodd"
viewBox="0 0 110.62 25.51"
 xmlns:xlink="http://www.w3.org/1999/xlink"
 xmlns:xodm="http://www.corel.com/coreldraw/odm/2003">
 <defs>
  <style type="text/css">
   <![CDATA[
    .fil0 {fill:#E3B873;fill-rule:nonzero}
   ]]>
  </style>
 </defs>
 <g id="Слой_x0020_1">
  <metadata id="CorelCorpID_0Corel-Layer"/>
  <path class="fil0" d="M71.44 8.18l-21.98 -8.15c-0.28,-0.1 -0.59,0.04 -0.69,0.33 0,0 0,0 0,0l-2.44 6.62c-0.1,0.28 0.05,0.59 0.33,0.7l0 0 2.54 0.93 -0.56 1.53c-0.1,0.28 0.04,0.59 0.33,0.7l5.09 1.87 -0.37 1.02c-0.34,0.91 -0.03,1.94 0.77,2.5l0 2.77 -7.3 0c-0.36,-0.81 -1.08,-1.4 -1.94,-1.57l0 -1.14c0,-0.3 -0.25,-0.55 -0.55,-0.55l-2.19 0c-0.3,0 -0.54,0.25 -0.54,0.55l0 8.68c0,0.3 0.24,0.54 0.54,0.54l2.19 0c0.3,0 0.55,-0.24 0.55,-0.54l0 -1.14c0.86,-0.18 1.58,-0.76 1.94,-1.57l7.3 0 0 0.54c0,0.9 0.73,1.63 1.63,1.63 0.9,0 1.63,-0.73 1.63,-1.63l0 -6.01c0.49,-0.25 0.87,-0.67 1.06,-1.19l0.38 -1.02 4.58 1.68c0.06,0.03 0.13,0.04 0.19,0.04 0.23,0 0.43,-0.15 0.51,-0.36l0.2 -0.55c1.77,0.33 3.47,-0.83 3.8,-2.6 0.13,-0.65 0.05,-1.33 -0.23,-1.93l3.3 -1.69c0.26,-0.14 0.37,-0.47 0.23,-0.73 -0.06,-0.12 -0.17,-0.22 -0.29,-0.26l-0.01 0zm-15.89 8.54l0.45 0.17c0.2,0.07 0.41,0.11 0.63,0.12l0 1.99 -1.08 0 0 -2.28zm-11.42 7.71l-1.1 0 0 -7.6 1.1 0 0 7.6zm2.17 -3.26c0,0.69 -0.43,1.31 -1.08,1.54l0 -4.16c0.65,0.23 1.08,0.85 1.08,1.54l0 1.08zm1.1 -1.08l9.23 0 0 1.08 -9.23 0 0 -1.08zm8.69 3.25c-0.3,0 -0.54,-0.24 -0.54,-0.54l0 -0.54 1.08 0 0 0.54c0,0.3 -0.24,0.54 -0.54,0.54zm2.05 -9.13l-0.38 1.02c-0.2,0.56 -0.83,0.85 -1.39,0.64l-1.02 -0.37c-0.56,-0.21 -0.85,-0.83 -0.65,-1.4 0,0 0,0 0,0l0.38 -1.02 2.75 1.01 0.31 0.12zm5.47 0.85l-13.76 -5.05 0.37 -1.02 8.16 2.99c0.19,0.07 0.41,0.03 0.56,-0.11l1.52 -1.44 4.27 1.57 -1.12 3.06zm3.67 -2.12c-0.35,0.92 -1.27,1.5 -2.25,1.41l0.83 -2.29 1.37 -0.7c0.22,0.5 0.23,1.06 0.05,1.58zm-1.83 -1.88c-0.03,0 -0.06,0.01 -0.09,0.02l-4.84 -1.78c-0.19,-0.07 -0.41,-0.03 -0.56,0.11l-1.52 1.44 -10.9 -4 2.06 -5.61 20.31 7.53 -4.46 2.29z"/>
  <path class="fil0" d="M0.7 13.78l27.76 0c0.38,0 0.7,0.31 0.7,0.7l0 0c0,0.39 -0.32,0.7 -0.7,0.7l-27.76 0c-0.38,0 -0.7,-0.31 -0.7,-0.7l0 0c0,-0.39 0.32,-0.7 0.7,-0.7z"/>
  <path class="fil0" d="M82.17 13.78l27.75 0c0.39,0 0.7,0.31 0.7,0.7l0 0c0,0.39 -0.31,0.7 -0.7,0.7l-27.75 0c-0.39,0 -0.71,-0.31 -0.71,-0.7l0 0c0,-0.39 0.32,-0.7 0.71,-0.7z"/>
 </g>
</svg>
