<?xml version="1.0" encoding="UTF-8"?>
<!DOCTYPE svg PUBLIC "-//W3C//DTD SVG 1.1//EN" "http://www.w3.org/Graphics/SVG/1.1/DTD/svg11.dtd">
<!-- Creator: CorelDRAW 2020 (64-Bit) -->
<svg xmlns="http://www.w3.org/2000/svg" xml:space="preserve" width="50px" height="50px" version="1.1" style="shape-rendering:geometricPrecision; text-rendering:geometricPrecision; image-rendering:optimizeQuality; fill-rule:evenodd; clip-rule:evenodd"
viewBox="0 0 44.08 44.08"
 xmlns:xlink="http://www.w3.org/1999/xlink"
 xmlns:xodm="http://www.corel.com/coreldraw/odm/2003">
 <defs>
  <style type="text/css">
   <![CDATA[
    .str0 {stroke:#FEFEFE;stroke-width:1.99;stroke-miterlimit:22.9256}
    .fil0 {fill:#FEFEFE}
    .fil1 {fill:#E3B873}
    .fil2 {fill:#FEFEFE;fill-rule:nonzero}
   ]]>
  </style>
 </defs>
 <g id="Слой_x0020_1">
  <metadata id="CorelCorpID_0Corel-Layer"/>
  <circle class="fil0 str0" cx="22.04" cy="22.04" r="21.05"/>
  <circle class="fil1" cx="22.04" cy="22.04" r="16.84"/>
  <path class="fil2" d="M16.02 29.62c-1.12,0 -2.14,-0.3 -3.05,-0.9 -0.91,-0.59 -1.64,-1.46 -2.17,-2.6 -0.53,-1.14 -0.8,-2.5 -0.8,-4.08 0,-1.58 0.27,-2.94 0.8,-4.08 0.53,-1.14 1.26,-2.01 2.17,-2.6 0.91,-0.6 1.93,-0.9 3.05,-0.9 1.12,0 2.14,0.3 3.05,0.9 0.92,0.59 1.64,1.46 2.17,2.6 0.53,1.14 0.8,2.5 0.8,4.08 0,1.58 -0.27,2.94 -0.8,4.08 -0.53,1.14 -1.25,2.01 -2.17,2.6 -0.91,0.6 -1.93,0.9 -3.05,0.9zm0 -0.42c1.59,0 2.39,-2.39 2.39,-7.16 0,-4.77 -0.8,-7.16 -2.39,-7.16 -1.59,0 -2.39,2.39 -2.39,7.16 0,4.77 0.8,7.16 2.39,7.16zm11.94 0.42c-0.96,0 -1.77,-0.14 -2.44,-0.4 -0.68,-0.26 -1.18,-0.6 -1.52,-1.02 -0.34,-0.41 -0.51,-0.84 -0.51,-1.28 0,-0.47 0.14,-0.85 0.43,-1.13 0.28,-0.29 0.66,-0.43 1.13,-0.43 0.11,0 0.22,0.01 0.33,0.03 0.11,0.02 0.19,0.03 0.23,0.03l0.27 0.04 0 3.33c0.01,0 0.16,0.05 0.44,0.16 0.36,0.1 0.76,0.15 1.22,0.15 0.97,0 1.71,-0.3 2.23,-0.89 0.52,-0.58 0.78,-1.47 0.78,-2.64 0,-1.21 -0.25,-2.11 -0.76,-2.72 -0.5,-0.61 -1.18,-0.91 -2.04,-0.91l-1.04 0 0 -0.52 1.04 0c0.62,0 1.14,-0.28 1.55,-0.83 0.42,-0.56 0.63,-1.35 0.63,-2.39 0,-1.04 -0.22,-1.83 -0.65,-2.39 -0.43,-0.55 -0.97,-0.83 -1.64,-0.83 -0.36,0 -0.7,0.06 -1.03,0.17 -0.04,0.01 -0.18,0.06 -0.42,0.14l0 3.32 -0.27 0.07c-0.22,0.02 -0.41,0.04 -0.56,0.04 -0.47,0 -0.85,-0.14 -1.13,-0.43 -0.28,-0.28 -0.43,-0.66 -0.43,-1.13 0,-0.43 0.17,-0.85 0.5,-1.26 0.33,-0.42 0.82,-0.76 1.47,-1.03 0.64,-0.27 1.4,-0.41 2.29,-0.41 1.16,0 2.15,0.17 2.96,0.51 0.81,0.34 1.42,0.79 1.82,1.36 0.41,0.57 0.62,1.19 0.62,1.87 0,0.79 -0.2,1.41 -0.61,1.88 -0.4,0.46 -0.92,0.83 -1.57,1.11 -0.64,0.25 -1.37,0.39 -2.18,0.43l0 0.11c0.91,0.04 1.74,0.2 2.49,0.47 1.66,0.67 2.49,1.79 2.49,3.37 0,1.22 -0.5,2.2 -1.51,2.93 -1,0.75 -2.54,1.12 -4.61,1.12z"/>
 </g>
</svg>
