<?xml version="1.0" encoding="UTF-8"?>
<!DOCTYPE svg PUBLIC "-//W3C//DTD SVG 1.1//EN" "http://www.w3.org/Graphics/SVG/1.1/DTD/svg11.dtd">
<!-- Creator: CorelDRAW 2020 (64-Bit) -->
<svg xmlns="http://www.w3.org/2000/svg" xml:space="preserve" width="50px" height="50px" version="1.1" style="shape-rendering:geometricPrecision; text-rendering:geometricPrecision; image-rendering:optimizeQuality; fill-rule:evenodd; clip-rule:evenodd"
viewBox="0 0 28.6 28.6"
 xmlns:xlink="http://www.w3.org/1999/xlink"
 xmlns:xodm="http://www.corel.com/coreldraw/odm/2003">
 <defs>
  <style type="text/css">
   <![CDATA[
    .str0 {stroke:#FEFEFE;stroke-width:1.29;stroke-miterlimit:22.9256}
    .fil0 {fill:#FEFEFE}
    .fil1 {fill:#E3B873}
    .fil2 {fill:#FEFEFE;fill-rule:nonzero}
   ]]>
  </style>
 </defs>
 <g id="Слой_x0020_1">
  <metadata id="CorelCorpID_0Corel-Layer"/>
  <circle class="fil0 str0" cx="14.3" cy="14.3" r="13.65"/>
  <circle class="fil1" cx="14.3" cy="14.3" r="10.92"/>
  <path class="fil2" d="M11.47 19.22c-0.73,0 -1.39,-0.2 -1.98,-0.58 -0.59,-0.39 -1.06,-0.95 -1.41,-1.69 -0.34,-0.74 -0.51,-1.63 -0.51,-2.65 0,-1.02 0.17,-1.91 0.51,-2.65 0.35,-0.74 0.82,-1.3 1.41,-1.69 0.59,-0.38 1.25,-0.58 1.98,-0.58 0.73,0 1.39,0.2 1.98,0.58 0.59,0.39 1.06,0.95 1.41,1.69 0.34,0.74 0.52,1.63 0.52,2.65 0,1.02 -0.18,1.91 -0.52,2.65 -0.35,0.74 -0.82,1.3 -1.41,1.69 -0.59,0.38 -1.25,0.58 -1.98,0.58zm0 -0.27c1.03,0 1.55,-1.55 1.55,-4.65 0,-3.1 -0.52,-4.65 -1.55,-4.65 -1.03,0 -1.55,1.55 -1.55,4.65 0,3.1 0.52,4.65 1.55,4.65zm5.46 0.06l0 -0.2 0.94 -0.27 0 -7.39 -1.42 0.99 -0.26 -0.33 2.45 -2.22 1.45 0 0 8.95 0.94 0.27 0 0.2 -4.1 0z"/>
 </g>
</svg>
