<?xml version="1.0" encoding="UTF-8"?>
<!DOCTYPE svg PUBLIC "-//W3C//DTD SVG 1.1//EN" "http://www.w3.org/Graphics/SVG/1.1/DTD/svg11.dtd">
<!-- Creator: CorelDRAW 2020 (64-Bit) -->
<svg xmlns="http://www.w3.org/2000/svg" xml:space="preserve" width="258px" height="54px" version="1.1" style="shape-rendering:geometricPrecision; text-rendering:geometricPrecision; image-rendering:optimizeQuality; fill-rule:evenodd; clip-rule:evenodd"
viewBox="0 0 3995.06 837.28"
 xmlns:xlink="http://www.w3.org/1999/xlink"
 xmlns:xodm="http://www.corel.com/coreldraw/odm/2003">
 <defs>
  <style type="text/css">
   <![CDATA[
    .fil0 {fill:#FEFEFE}
    .fil1 {fill:#FEFEFE;fill-rule:nonzero}
   ]]>
  </style>
 </defs>
 <g id="Слой_x0020_1">
  <metadata id="CorelCorpID_0Corel-Layer"/>
  <polygon class="fil0" points="1830.47,0 1840.43,0 1840.43,837.28 1830.47,837.28 "/>
  <path class="fil1" d="M818.24 516.89c-10.41,0 -19.59,-1.68 -27.53,-5.03 -7.77,-3.54 -13.77,-7.94 -18.01,-13.24 -4.06,-5.29 -6.09,-10.68 -6.09,-16.15 0,-6 1.77,-10.77 5.3,-14.3 3.71,-3.71 8.56,-5.56 14.56,-5.56 1.42,0 2.83,0.18 4.24,0.53 1.41,0.18 2.38,0.27 2.91,0.27l3.44 0.52 0 42.37 5.03 2.12c3.18,1.23 6.8,1.85 10.86,1.85 8.65,0 15.71,-2.29 21.18,-6.88 5.47,-4.6 9.71,-13.07 12.71,-25.42 3,-12.36 4.5,-29.83 4.5,-52.43 -1.59,2.65 -4.06,5.3 -7.42,7.94 -6.7,5.3 -14.38,7.95 -23.03,7.95 -12.88,0 -24.18,-2.38 -33.89,-7.15 -9.53,-4.94 -16.86,-11.74 -21.98,-20.39 -5.11,-8.64 -7.67,-18.44 -7.67,-29.39 0,-18.88 5.82,-33.71 17.47,-44.47 11.83,-10.95 28.51,-16.42 50.04,-16.42 22.24,0 39.72,7.94 52.43,23.83 12.71,15.88 19.06,40.15 19.06,72.81 0,31.77 -6.97,55.86 -20.92,72.28 -13.76,16.24 -32.83,24.36 -57.19,24.36zm7.95 -82.08c7.23,0 12.97,-3.53 17.2,-10.59 4.42,-7.06 6.63,-18.1 6.63,-33.09 0,-22.42 -2.48,-38.39 -7.42,-47.92 -4.76,-9.54 -10.68,-14.3 -17.74,-14.3 -3.53,0 -7.06,1.76 -10.59,5.29 -3.35,3.53 -6.18,9.26 -8.47,17.21 -2.3,7.94 -3.45,18.1 -3.45,30.45 0,12.35 1.15,22.5 3.45,30.45 2.47,7.94 5.47,13.68 9,17.21 3.71,3.53 7.5,5.29 11.39,5.29zm172.12 82.08c-14.3,0 -27.27,-3.8 -38.92,-11.39 -11.65,-7.59 -20.91,-18.62 -27.79,-33.09 -6.71,-14.66 -10.07,-32.04 -10.07,-52.16 0,-20.12 3.36,-37.42 10.07,-51.89 6.88,-14.65 16.14,-25.78 27.79,-33.37 11.65,-7.58 24.62,-11.38 38.92,-11.38 14.3,0 27.27,3.8 38.92,11.38 11.65,7.59 20.84,18.72 27.54,33.37 6.88,14.47 10.32,31.77 10.32,51.89 0,20.12 -3.44,37.5 -10.32,52.16 -6.7,14.47 -15.89,25.5 -27.54,33.09 -11.65,7.59 -24.62,11.39 -38.92,11.39zm0 -5.3c20.3,0 30.45,-30.44 30.45,-91.34 0,-60.9 -10.15,-91.34 -30.45,-91.34 -20.29,0 -30.44,30.44 -30.44,91.34 0,60.9 10.15,91.34 30.44,91.34zm199.96 -150.91l0 140.32 21.18 7.94 0 3.98 -50.3 0 0 -3.98 21.18 -7.94 0 -165.48 -18.53 -3.97 0 -3.97 35.74 0c9.17,0 16.41,1.95 21.71,5.82 5.47,3.71 10.14,9.28 14.03,16.69l57.72 110.4 44.21 -110.4c2.99,-7.77 7.06,-13.42 12.18,-16.95 5.11,-3.7 12.98,-5.56 23.57,-5.56l27.8 0 0 3.97 -15.89 3.97 0 169.45 15.89 3.97 0 3.98 -75.46 0 0 -3.98 15.89 -3.97 0 -144.29 -62.22 154.88 -7.95 0 -80.75 -154.88zm231.76 140.32c0,-10.41 2.03,-19.85 6.09,-28.33 4.24,-8.65 9.35,-16.15 15.36,-22.5 5.99,-6.35 13.85,-13.86 23.56,-22.51 9,-7.94 16.06,-14.56 21.18,-19.86 5.11,-5.47 9.44,-11.56 12.98,-18.26 3.52,-6.89 5.29,-14.3 5.29,-22.24 0,-11.65 -2.83,-20.75 -8.47,-27.27 -5.65,-6.54 -12.98,-9.8 -21.98,-9.8 -5.12,0 -10.32,0.7 -15.62,2.11l-5.55 1.86 0 42.36 -3.45 0.8c-2.84,0.35 -5.21,0.53 -7.14,0.53 -6.02,0 -10.86,-1.77 -14.57,-5.3 -3.53,-3.71 -5.29,-8.56 -5.29,-14.56 0,-5.65 2.11,-11.12 6.35,-16.41 4.41,-5.3 10.86,-9.63 19.33,-12.98 8.64,-3.35 19.06,-5.03 31.24,-5.03 23.83,0 41.47,4.77 52.95,14.3 11.47,9.53 17.21,22.85 17.21,39.98 0,10.76 -2.83,20.03 -8.47,27.8 -5.48,7.76 -12.27,14.2 -20.39,19.32 -7.94,5.13 -18.62,10.95 -32.03,17.48 -11.31,5.47 -20.48,10.33 -27.54,14.56 -6.88,4.06 -13.33,9 -19.32,14.83 -5.83,5.82 -9.99,12.44 -12.45,19.86l97.96 0c1.23,-9.53 4.24,-17.48 9,-23.83 1.93,-3 4.24,-5.65 6.89,-7.95l7.94 0 0 52.96 -131.06 0 0 -11.92z"/>
  <path class="fil0" d="M46.89 175.13c0,-3.29 2.78,-5.96 6.2,-5.96l446.41 0c3.43,0 6.2,2.67 6.2,5.96l0 430.19c0,3.28 -2.77,5.95 -6.2,5.95 -3.42,0 -6.2,-2.67 -6.2,-5.95l0 -424.25 -440.21 0c-3.42,0 -6.2,-2.66 -6.2,-5.94z"/>
  <path class="fil1" d="M53.4 614.01l1.94 0 0 -1.94 0 -370.03 25.33 25.32c3.16,3.16 8.28,3.16 11.45,0 3.16,-3.17 3.16,-8.29 0,-11.46l-39.15 -39.14c-3.16,-3.16 -8.29,-3.16 -11.45,0l-39.15 39.14c-3.16,3.17 -3.16,8.29 0,11.46 3.17,3.16 8.3,3.16 11.46,0l25.32 -25.32 0 370.03 0 1.94 1.94 0 12.31 0z"/>
  <path class="fil1" d="M39.13 618.22l0 1.95 1.95 0 371.97 0 -25.46 25.31c-3.17,3.16 -3.17,8.3 0,11.46 3.18,3.16 8.32,3.16 11.49,0l39.36 -39.15c3.17,-3.16 3.17,-8.29 0,-11.45l-39.36 -39.15c-3.17,-3.16 -8.31,-3.16 -11.49,0 -3.17,3.16 -3.17,8.3 0,11.46l25.46 25.32 -371.97 0 -1.95 0 0 1.94 0 12.31z"/>
  <path class="fil0" d="M216.84 170.98c2.4,2.4 2.4,6.29 0,8.7l-73.81 73.81c-2.4,2.4 -6.3,2.4 -8.7,0 -2.4,-2.4 -2.4,-6.29 0,-8.69l73.81 -73.82c2.4,-2.41 6.3,-2.41 8.7,0z"/>
  <path class="fil0" d="M501.85 464.19c2.4,2.4 2.4,6.3 0,8.7l-67.66 67.66c-2.41,2.4 -6.3,2.4 -8.7,0 -2.41,-2.41 -2.41,-6.3 0,-8.7l67.66 -67.66c2.4,-2.4 6.3,-2.4 8.7,0z"/>
  <path class="fil0" d="M309.08 170.95c2.42,2.39 2.44,6.28 0.05,8.7l-159.92 161.98c-2.39,2.42 -6.29,2.45 -8.7,0.06 -2.42,-2.39 -2.44,-6.28 -0.06,-8.7l159.93 -161.98c2.39,-2.42 6.28,-2.44 8.7,-0.06z"/>
  <path class="fil0" d="M503.9 361.66c2.4,2.4 2.4,6.3 0,8.7l-155.83 155.83c-2.4,2.4 -6.3,2.4 -8.7,0 -2.4,-2.4 -2.4,-6.3 0,-8.7l155.83 -155.83c2.41,-2.4 6.3,-2.4 8.7,0z"/>
  <path class="fil0" d="M407.57 173.05c2.38,2.43 2.35,6.32 -0.07,8.7l-256.31 252.21c-2.42,2.38 -6.31,2.34 -8.69,-0.07 -2.39,-2.43 -2.36,-6.32 0.07,-8.71l256.3 -252.2c2.42,-2.38 6.31,-2.35 8.7,0.07z"/>
  <path class="fil0" d="M503.9 265.29c2.41,2.41 2.41,6.3 0,8.7l-258.35 258.36c-2.4,2.4 -6.3,2.4 -8.7,0 -2.4,-2.41 -2.4,-6.3 0,-8.7l258.35 -258.36c2.41,-2.4 6.3,-2.4 8.7,0z"/>
  <path class="fil0" d="M499.8 173.02c2.4,2.4 2.4,6.3 0,8.7l-352.67 352.67c-2.4,2.4 -6.3,2.4 -8.7,0 -2.4,-2.4 -2.4,-6.3 0,-8.7l352.67 -352.67c2.4,-2.4 6.3,-2.4 8.7,0z"/>
  <path class="fil1" d="M2852.75 512.92l0 -3.98 18.53 -5.29 0 -145.36 -27.8 19.6 -5.3 -6.62 48.19 -43.69 28.59 0 0 176.07 18.54 5.29 0 3.98 -80.75 0zm99.3 -11.92c0,-10.41 2.02,-19.85 6.09,-28.33 4.23,-8.65 9.34,-16.15 15.35,-22.5 6,-6.35 13.85,-13.86 23.57,-22.51 9,-7.94 16.05,-14.56 21.18,-19.86 5.11,-5.47 9.44,-11.56 12.97,-18.26 3.52,-6.89 5.3,-14.3 5.3,-22.24 0,-11.65 -2.83,-20.75 -8.47,-27.27 -5.66,-6.54 -12.98,-9.8 -21.98,-9.8 -5.13,0 -10.32,0.7 -15.62,2.11l-5.56 1.86 0 42.36 -3.44 0.8c-2.84,0.35 -5.22,0.53 -7.15,0.53 -6.01,0 -10.86,-1.77 -14.57,-5.3 -3.53,-3.71 -5.29,-8.56 -5.29,-14.56 0,-5.65 2.12,-11.12 6.35,-16.41 4.41,-5.3 10.86,-9.63 19.33,-12.98 8.65,-3.35 19.06,-5.03 31.24,-5.03 23.83,0 41.48,4.77 52.96,14.3 11.46,9.53 17.21,22.85 17.21,39.98 0,10.76 -2.84,20.03 -8.48,27.8 -5.48,7.76 -12.26,14.2 -20.38,19.32 -7.94,5.13 -18.63,10.95 -32.04,17.48 -11.3,5.47 -20.48,10.33 -27.53,14.56 -6.89,4.06 -13.33,9 -19.33,14.83 -5.82,5.82 -9.99,12.44 -12.45,19.86l97.97 0c1.23,-9.53 4.23,-17.48 9,-23.83 1.93,-3 4.24,-5.65 6.88,-7.95l7.95 0 0 52.96 -131.06 0 0 -11.92zm222.44 15.89c-22.23,0 -39.09,-4.42 -50.57,-13.24 -11.29,-8.83 -16.94,-20.3 -16.94,-34.42 0,-9.71 4.24,-19.06 12.71,-28.06 8.47,-9.18 18.8,-15.71 30.98,-19.6 -11.65,-6.53 -20.56,-13.67 -26.75,-21.44 -5.99,-7.94 -9,-17.57 -9,-28.86 0,-14.13 5.66,-25.6 16.95,-34.42 11.48,-8.83 28.33,-13.24 50.57,-13.24 11.12,0 20.82,2.03 29.13,6.09 8.47,4.06 14.99,9.36 19.59,15.88 4.59,6.54 6.88,13.33 6.88,20.39 0,8.3 -3.61,16.33 -10.86,24.1 -7.05,7.76 -15.35,12.97 -24.88,15.62 16.05,7.06 28.23,15.44 36.53,25.15 8.31,9.71 12.45,21.62 12.45,35.74 0,9.18 -2.82,17.57 -8.47,25.16 -5.65,7.58 -14.21,13.68 -25.69,18.26 -11.47,4.59 -25.68,6.89 -42.63,6.89zm19.87 -116.5c6.71,-3 12.08,-7.32 16.15,-12.97 4.23,-5.65 6.35,-12.8 6.35,-21.45 0,-6.35 -1.59,-12.26 -4.77,-17.74 -3,-5.47 -6.97,-9.79 -11.91,-12.97 -4.76,-3.36 -9.8,-5.03 -15.09,-5.03 -7.59,0 -13.94,3 -19.07,9 -4.93,5.82 -7.41,13.86 -7.41,24.09 0,14.13 11.92,26.48 35.75,37.07zm-22.51 109.88c11.29,0 20.03,-3.09 26.21,-9.27 6.36,-6.35 9.53,-15.18 9.53,-26.48 0,-8.47 -4.23,-17.03 -12.7,-25.68 -8.48,-8.64 -19.69,-15.97 -33.63,-21.97 -9.89,3.53 -17.65,8.82 -23.3,15.89 -5.65,6.88 -8.47,15.71 -8.47,26.47 0,7.41 1.85,14.29 5.56,20.65 3.87,6.18 9,11.12 15.35,14.83 6.53,3.71 13.68,5.56 21.45,5.56zm174.89 -1.33l15.88 -3.97 0 -169.45 -15.88 -3.97 0 -3.97 67.51 0c31.58,0 55.77,8.12 72.55,24.36 16.94,16.24 25.41,39.01 25.41,68.31 0,29.3 -8.47,52.07 -25.41,68.31 -16.78,16.24 -40.97,24.36 -72.55,24.36l-67.51 0 0 -3.98zm67.51 -2.64c16.41,0 29.12,-6.62 38.12,-19.86 9.01,-13.42 13.51,-35.48 13.51,-66.19 0,-30.71 -4.5,-52.69 -13.51,-65.93 -9,-13.41 -21.71,-20.12 -38.12,-20.12l-7.94 0 0 172.1 7.94 0zm95.19 2.64l21.18 -7.94 72.81 -176.07 7.95 0 75.45 180.04 13.24 3.97 0 3.98 -31.77 0c-9.17,0 -16.68,-2.04 -22.51,-6.09 -5.82,-4.24 -10.13,-9.71 -12.97,-16.42l-13.5 -31.77 -63.28 0 -17.48 42.36 19.86 7.94 0 3.98 -48.98 0 0 -3.98zm49.25 -56.92l57.98 0 -29.12 -69.63 -28.86 69.63zm169.02 56.92l15.89 -3.97 0 -60.89 -54.28 -108.56 -13.23 -3.97 0 -3.97 33.09 0c9.18,0 16.49,1.95 21.98,5.82 5.64,3.89 10.23,9.45 13.77,16.69l39.18 78.1 40.24 -88.69 -19.85 -7.95 0 -3.97 50.3 0 0 3.97 -21.18 7.95 -46.34 101.93 0 63.54 15.89 3.97 0 3.98 -75.46 0 0 -3.98zm194.54 7.95c-12.53,0 -24.28,-2.83 -35.21,-8.47 -4.95,-2.47 -9.09,-5.39 -12.44,-8.74 -2.48,4.06 -5.57,7.68 -9.27,10.85 -3.18,2.3 -4.95,3.53 -5.3,3.71l-6.61 0 0 -50.31 10.59 0c2.65,8.65 6.35,16.42 11.12,23.3 10.76,15.36 24.7,23.04 41.83,23.04 10.06,0 18.08,-3 24.09,-9 6,-6 9,-14.04 9,-24.1 0,-5.82 -1.77,-11.03 -5.29,-15.62 -3.36,-4.59 -7.6,-8.65 -12.71,-12.18 -5.12,-3.53 -12.27,-7.94 -21.45,-13.24 -11.64,-6.52 -21.1,-12.44 -28.33,-17.73 -7.24,-5.3 -13.42,-11.92 -18.53,-19.86 -5.12,-8.12 -7.68,-17.65 -7.68,-28.6 0,-8.65 2.39,-16.41 7.15,-23.3 4.94,-7.05 12.26,-12.62 21.98,-16.67 9.7,-4.24 21.62,-6.36 35.74,-6.36 10.24,0 20.47,2.91 30.71,8.73 3.88,2.12 7.76,4.95 11.65,8.48 2.99,-4.59 6.09,-8.21 9.27,-10.85 3.18,-2.3 4.94,-3.53 5.3,-3.71l6.61 0 0 50.3 -10.59 0c-2.3,-8.47 -5.74,-16.15 -10.32,-23.03 -4.24,-6.71 -9.53,-12.27 -15.89,-16.68 -6.18,-4.42 -13.33,-6.62 -21.44,-6.62 -6.89,0 -12.81,2.73 -17.74,8.21 -4.96,5.47 -7.42,12.44 -7.42,20.91 0,6.54 1.86,12.45 5.56,17.74 3.88,5.12 8.55,9.62 14.03,13.51 5.64,3.88 13.24,8.56 22.78,14.03 11.12,6.35 20.12,12 27,16.94 6.89,4.95 12.71,11.12 17.48,18.54 4.76,7.23 7.14,15.62 7.14,25.15 0,9.53 -2.74,18.26 -8.2,26.21 -5.48,7.77 -13.7,13.95 -24.63,18.53 -10.94,4.59 -24.28,6.89 -39.98,6.89z"/>
  <path class="fil1" d="M2481.89 203.42c-4.1,-19.51 -21.87,-34.25 -43.11,-34.25 -4.86,0 -8.8,3.84 -8.8,8.57 0,4.73 3.94,8.56 8.8,8.56 14.55,0 26.4,11.52 26.4,25.68 0,14.16 -11.85,25.68 -26.4,25.68 -4.86,0 -8.8,3.83 -8.8,8.56 0,4.74 3.94,8.57 8.8,8.57 21.24,0 39.01,-14.74 43.11,-34.25l115.26 0 0 77.05 -475.12 0 0 -77.05 123.18 0 26.4 0c4.85,0 8.79,-3.83 8.79,-8.56 0,-4.73 -3.94,-8.56 -8.79,-8.56l-15.98 0c3.64,-9.95 13.33,-17.12 24.77,-17.12 14.56,0 26.4,11.52 26.4,25.68 0,14.16 -11.84,25.68 -26.4,25.68 -4.86,0 -8.79,3.83 -8.79,8.56 0,4.74 3.93,8.57 8.79,8.57 24.27,0 44,-19.21 44,-42.81 0,-23.6 -19.73,-42.81 -44,-42.81 -21.24,0 -39.01,14.74 -43.1,34.25l-132.87 0 0 111.29 0 342.43 510.32 0 0 -342.43 0 -111.29 -132.86 0zm115.26 436.6l-475.12 0 0 -325.31 475.12 0 0 325.31z"/>
  <path class="fil1" d="M2333.2 186.3c14.55,0 26.4,11.52 26.4,25.68 0,14.16 -11.85,25.68 -26.4,25.68 -4.86,0 -8.8,3.83 -8.8,8.56 0,4.74 3.94,8.57 8.8,8.57 24.25,0 43.98,-19.21 43.98,-42.81 0,-23.6 -19.73,-42.81 -43.98,-42.81 -4.86,0 -8.8,3.84 -8.8,8.57 0,4.73 3.94,8.56 8.8,8.56z"/>
  <path class="fil1" d="M2385.98 186.3c14.56,0 26.4,11.52 26.4,25.68 0,14.16 -11.84,25.68 -26.4,25.68 -4.84,0 -8.8,3.83 -8.8,8.56 0,4.74 3.96,8.57 8.8,8.57 24.27,0 44,-19.21 44,-42.81 0,-23.6 -19.73,-42.81 -44,-42.81 -4.84,0 -8.8,3.84 -8.8,8.57 0,4.73 3.96,8.56 8.8,8.56z"/>
  <path class="fil1" d="M2183.62 383.19l193.56 0c4.86,0 8.8,-3.82 8.8,-8.56 0,-4.73 -3.94,-8.56 -8.8,-8.56l-193.56 0c-4.85,0 -8.8,3.83 -8.8,8.56 0,4.74 3.95,8.56 8.8,8.56z"/>
  <path class="fil1" d="M2535.56 503.05l-131.98 0c-4.86,0 -8.8,3.83 -8.8,8.56 0,4.74 3.94,8.56 8.8,8.56l131.98 0c4.86,0 8.8,-3.82 8.8,-8.56 0,-4.73 -3.94,-8.56 -8.8,-8.56z"/>
  <path class="fil1" d="M2183.62 451.69l87.99 0c4.85,0 8.79,-3.82 8.79,-8.56 0,-4.74 -3.94,-8.56 -8.79,-8.56l-87.99 0c-4.85,0 -8.8,3.82 -8.8,8.56 0,4.74 3.95,8.56 8.8,8.56z"/>
  <path class="fil1" d="M2535.56 571.54l-87.98 0c-4.86,0 -8.8,3.82 -8.8,8.56 0,4.74 3.94,8.56 8.8,8.56l87.98 0c4.86,0 8.8,-3.82 8.8,-8.56 0,-4.74 -3.94,-8.56 -8.8,-8.56z"/>
  <path class="fil1" d="M2350.8 443.13c0,4.74 3.94,8.56 8.8,8.56l131.97 0c4.87,0 8.8,-3.82 8.8,-8.56 0,-4.74 -3.93,-8.56 -8.8,-8.56l-131.97 0c-4.86,0 -8.8,3.82 -8.8,8.56z"/>
  <path class="fil1" d="M2321.85 449.2c1.59,-1.62 2.55,-3.85 2.55,-6.07 0,-2.24 -0.96,-4.47 -2.55,-6.08 -3.26,-3.17 -9.24,-3.17 -12.49,0 -1.59,1.61 -2.56,3.84 -2.56,6.08 0,2.22 0.97,4.45 2.56,6.07 1.66,1.62 3.95,2.49 6.24,2.49 2.29,0 4.58,-0.87 6.25,-2.49z"/>
  <path class="fil1" d="M2218.82 511.61c0,4.74 3.94,8.56 8.79,8.56l131.99 0c4.84,0 8.8,-3.82 8.8,-8.56 0,-4.73 -3.96,-8.56 -8.8,-8.56l-131.99 0c-4.85,0 -8.79,3.83 -8.79,8.56z"/>
  <path class="fil1" d="M2183.62 520.17c2.29,0 4.58,-0.94 6.25,-2.48 1.59,-1.63 2.55,-3.86 2.55,-6.08 0,-2.24 -0.96,-4.46 -2.55,-5.99 -3.26,-3.26 -9.24,-3.26 -12.49,-0.09 -1.59,1.62 -2.56,3.84 -2.56,6.08 0,2.22 0.97,4.45 2.56,6.08 1.66,1.54 3.86,2.48 6.24,2.48z"/>
  <path class="fil1" d="M2535.56 451.69c2.29,0 4.58,-0.87 6.24,-2.49 1.69,-1.62 2.56,-3.85 2.56,-6.07 0,-2.24 -0.87,-4.47 -2.56,-6.08 -3.33,-3.17 -9.23,-3.17 -12.49,0 -1.57,1.61 -2.55,3.84 -2.55,6.08 0,2.22 0.98,4.45 2.55,6.07 1.69,1.62 3.96,2.49 6.25,2.49z"/>
  <path class="fil1" d="M2403.58 571.54l-219.96 0c-4.85,0 -8.8,3.82 -8.8,8.56 0,4.74 3.95,8.56 8.8,8.56l219.96 0c4.86,0 8.8,-3.82 8.8,-8.56 0,-4.74 -3.94,-8.56 -8.8,-8.56z"/>
 </g>
</svg>
