<?xml version="1.0" encoding="UTF-8"?>
<!DOCTYPE svg PUBLIC "-//W3C//DTD SVG 1.1//EN" "http://www.w3.org/Graphics/SVG/1.1/DTD/svg11.dtd">
<!-- Creator: CorelDRAW 2020 (64-Bit) -->
<svg xmlns="http://www.w3.org/2000/svg" xml:space="preserve" width="252px" height="54px" version="1.1" style="shape-rendering:geometricPrecision; text-rendering:geometricPrecision; image-rendering:optimizeQuality; fill-rule:evenodd; clip-rule:evenodd"
viewBox="0 0 135.36 29.01"
 xmlns:xlink="http://www.w3.org/1999/xlink"
 xmlns:xodm="http://www.corel.com/coreldraw/odm/2003">
 <defs>
  <style type="text/css">
   <![CDATA[
    .fil0 {fill:#FEFEFE}
    .fil1 {fill:#FEFEFE;fill-rule:nonzero}
   ]]>
  </style>
 </defs>
 <g id="Слой_x0020_1">
  <metadata id="CorelCorpID_0Corel-Layer"/>
  <polygon class="fil0" points="63.43,0 63.77,0 63.77,29.01 63.43,29.01 "/>
  <path class="fil1" d="M28.12 17.91c-0.42,0 -0.78,-0.06 -1.08,-0.17 -0.29,-0.12 -0.52,-0.27 -0.67,-0.45 -0.15,-0.19 -0.22,-0.38 -0.22,-0.57 0,-0.21 0.06,-0.38 0.18,-0.5 0.13,-0.13 0.3,-0.19 0.51,-0.19 0.05,0 0.1,0.01 0.15,0.02 0.04,0 0.08,0.01 0.1,0.01l0.12 0.02 0 1.46c0,0 0.07,0.03 0.19,0.08 0.16,0.04 0.34,0.06 0.54,0.06 0.37,0 0.66,-0.15 0.87,-0.45 0.21,-0.3 0.32,-0.78 0.32,-1.43 0,-0.64 -0.11,-1.11 -0.33,-1.39 -0.22,-0.3 -0.54,-0.44 -0.95,-0.44 -0.16,0 -0.31,0.02 -0.45,0.08 -0.14,0.05 -0.29,0.13 -0.45,0.22 -0.13,0.08 -0.26,0.18 -0.39,0.29l-0.18 -0.14 0.37 -3.07 2.7 0c0.05,-0.33 0.15,-0.6 0.31,-0.82 0.07,-0.11 0.15,-0.2 0.24,-0.28l0.28 0 0 1.79 -3.33 0 -0.25 2.11c0.09,-0.06 0.21,-0.13 0.38,-0.2 0.34,-0.14 0.66,-0.21 0.95,-0.21 0.89,0 1.56,0.18 2,0.55 0.44,0.36 0.66,0.86 0.66,1.51 0,0.66 -0.22,1.18 -0.65,1.55 -0.43,0.37 -1.07,0.56 -1.92,0.56zm5.88 0c-0.77,0 -1.38,-0.28 -1.82,-0.83 -0.44,-0.55 -0.66,-1.39 -0.66,-2.52 0,-1.1 0.24,-1.93 0.72,-2.49 0.48,-0.57 1.14,-0.86 1.99,-0.86 0.36,0 0.67,0.06 0.94,0.19 0.28,0.11 0.48,0.26 0.63,0.45 0.14,0.18 0.22,0.37 0.22,0.56 0,0.2 -0.07,0.37 -0.2,0.5 -0.12,0.12 -0.28,0.18 -0.49,0.18 -0.09,0 -0.17,0 -0.26,-0.01l-0.11 -0.03 0 -1.47 -0.17 -0.06c-0.14,-0.05 -0.26,-0.08 -0.38,-0.08 -0.3,0 -0.55,0.08 -0.74,0.24 -0.19,0.16 -0.34,0.45 -0.44,0.88 -0.1,0.43 -0.15,1.04 -0.15,1.82 0.07,-0.11 0.15,-0.2 0.25,-0.28 0.23,-0.18 0.5,-0.27 0.8,-0.27 0.45,0 0.84,0.08 1.17,0.25 0.34,0.17 0.59,0.4 0.77,0.7 0.18,0.3 0.27,0.64 0.27,1.02 0,0.65 -0.21,1.17 -0.62,1.55 -0.4,0.37 -0.98,0.56 -1.72,0.56zm0 -0.18c0.12,0 0.24,-0.06 0.35,-0.19 0.13,-0.12 0.23,-0.32 0.31,-0.59 0.08,-0.28 0.12,-0.63 0.12,-1.06 0,-0.43 -0.05,-0.78 -0.13,-1.05 -0.08,-0.28 -0.18,-0.48 -0.31,-0.6 -0.13,-0.12 -0.25,-0.18 -0.39,-0.18 -0.25,0 -0.45,0.12 -0.6,0.36 -0.15,0.25 -0.22,0.63 -0.22,1.15 0,0.78 0.08,1.33 0.24,1.66 0.17,0.33 0.38,0.5 0.63,0.5zm6.61 -5.23l0 4.86 0.73 0.27 0 0.14 -1.74 0 0 -0.14 0.73 -0.27 0 -5.73 -0.64 -0.14 0 -0.14 1.24 0c0.32,0 0.57,0.07 0.75,0.2 0.19,0.13 0.35,0.32 0.49,0.58l2 3.83 1.53 -3.83c0.1,-0.27 0.24,-0.46 0.42,-0.59 0.18,-0.13 0.45,-0.19 0.82,-0.19l0.96 0 0 0.14 -0.55 0.14 0 5.87 0.55 0.13 0 0.14 -2.62 0 0 -0.14 0.56 -0.13 0 -5 -2.16 5.36 -0.28 0 -2.79 -5.36zm8.03 4.86c0,-0.36 0.07,-0.69 0.21,-0.98 0.14,-0.3 0.32,-0.56 0.53,-0.78 0.21,-0.22 0.48,-0.48 0.82,-0.78 0.31,-0.28 0.55,-0.51 0.73,-0.69 0.18,-0.19 0.33,-0.4 0.45,-0.63 0.12,-0.24 0.18,-0.5 0.18,-0.77 0,-0.41 -0.09,-0.72 -0.29,-0.95 -0.2,-0.22 -0.45,-0.34 -0.76,-0.34 -0.18,0 -0.36,0.03 -0.54,0.08l-0.2 0.06 0 1.47 -0.12 0.03c-0.09,0.01 -0.18,0.01 -0.24,0.01 -0.21,0 -0.38,-0.06 -0.51,-0.18 -0.12,-0.13 -0.18,-0.3 -0.18,-0.5 0,-0.2 0.07,-0.39 0.22,-0.57 0.15,-0.19 0.38,-0.34 0.67,-0.45 0.3,-0.12 0.66,-0.18 1.08,-0.18 0.83,0 1.44,0.17 1.84,0.5 0.39,0.33 0.59,0.79 0.59,1.38 0,0.38 -0.1,0.7 -0.29,0.97 -0.19,0.27 -0.43,0.49 -0.71,0.67 -0.27,0.17 -0.64,0.38 -1.11,0.6 -0.39,0.19 -0.71,0.36 -0.95,0.51 -0.24,0.14 -0.46,0.31 -0.67,0.51 -0.2,0.2 -0.35,0.43 -0.43,0.69l3.39 0c0.05,-0.33 0.15,-0.61 0.31,-0.83 0.07,-0.1 0.15,-0.19 0.24,-0.27l0.28 0 0 1.83 -4.54 0 0 -0.41z"/>
  <path class="fil0" d="M1.62 6.07c0,-0.12 0.1,-0.21 0.22,-0.21l15.47 0c0.12,0 0.21,0.09 0.21,0.21l0 14.9c0,0.12 -0.09,0.21 -0.21,0.21 -0.12,0 -0.22,-0.09 -0.22,-0.21l0 -14.7 -15.25 0c-0.12,0 -0.22,-0.09 -0.22,-0.2z"/>
  <path class="fil1" d="M1.85 21.28l0.07 0 0 -0.07 0 -12.82 0.88 0.87c0.1,0.11 0.28,0.11 0.39,0 0.11,-0.11 0.11,-0.28 0,-0.39l-1.35 -1.36c-0.11,-0.11 -0.29,-0.11 -0.4,0l-1.36 1.36c-0.11,0.11 -0.11,0.28 0,0.39 0.11,0.11 0.29,0.11 0.4,0l0.88 -0.87 0 12.82 0 0.07 0.06 0 0.43 0z"/>
  <path class="fil1" d="M1.36 21.42l0 0.07 0.06 0 12.89 0 -0.88 0.88c-0.11,0.11 -0.11,0.28 0,0.39 0.11,0.11 0.29,0.11 0.4,0l1.36 -1.35c0.11,-0.11 0.11,-0.29 0,-0.4l-1.36 -1.36c-0.11,-0.11 -0.29,-0.11 -0.4,0 -0.11,0.11 -0.11,0.29 0,0.4l0.88 0.88 -12.89 0 -0.06 0 0 0.06 0 0.43z"/>
  <path class="fil0" d="M7.51 5.92c0.09,0.09 0.09,0.22 0,0.31l-2.55 2.55c-0.09,0.09 -0.22,0.09 -0.31,0 -0.08,-0.08 -0.08,-0.21 0,-0.3l2.56 -2.56c0.09,-0.08 0.22,-0.08 0.3,0z"/>
  <path class="fil0" d="M17.39 16.08c0.08,0.09 0.08,0.22 0,0.31l-2.35 2.34c-0.08,0.08 -0.21,0.08 -0.3,0 -0.08,-0.08 -0.08,-0.22 0,-0.3l2.35 -2.35c0.08,-0.08 0.22,-0.08 0.3,0z"/>
  <path class="fil0" d="M10.71 5.92c0.08,0.09 0.08,0.22 0,0.3l-5.54 5.62c-0.08,0.08 -0.22,0.08 -0.3,0 -0.09,-0.08 -0.09,-0.22 0,-0.3l5.54 -5.61c0.08,-0.09 0.22,-0.09 0.3,-0.01z"/>
  <path class="fil0" d="M17.46 12.53c0.08,0.08 0.08,0.22 0,0.3l-5.4 5.4c-0.08,0.09 -0.22,0.09 -0.3,0 -0.08,-0.08 -0.08,-0.22 0,-0.3l5.4 -5.4c0.08,-0.08 0.22,-0.08 0.3,0z"/>
  <path class="fil0" d="M14.12 6c0.08,0.08 0.08,0.22 0,0.3l-8.88 8.74c-0.09,0.08 -0.22,0.08 -0.3,-0.01 -0.09,-0.08 -0.08,-0.21 0,-0.3l8.88 -8.74c0.08,-0.08 0.22,-0.08 0.3,0.01z"/>
  <path class="fil0" d="M17.46 9.19c0.08,0.09 0.08,0.22 0,0.3l-8.95 8.96c-0.08,0.08 -0.22,0.08 -0.3,0 -0.09,-0.09 -0.09,-0.22 0,-0.31l8.95 -8.95c0.08,-0.08 0.22,-0.08 0.3,0z"/>
  <path class="fil0" d="M17.32 6c0.08,0.08 0.08,0.21 0,0.3l-12.22 12.22c-0.09,0.08 -0.22,0.08 -0.3,0 -0.09,-0.09 -0.09,-0.22 0,-0.3l12.22 -12.22c0.08,-0.09 0.21,-0.09 0.3,0z"/>
  <path class="fil1" d="M101.41 17.95c-0.77,0 -1.35,-0.16 -1.75,-0.46 -0.39,-0.31 -0.58,-0.7 -0.58,-1.19 0,-0.34 0.14,-0.66 0.44,-0.98 0.29,-0.31 0.65,-0.54 1.07,-0.68 -0.4,-0.22 -0.71,-0.47 -0.93,-0.74 -0.21,-0.27 -0.31,-0.61 -0.31,-1 0,-0.49 0.2,-0.89 0.59,-1.19 0.39,-0.31 0.98,-0.46 1.75,-0.46 0.39,0 0.72,0.07 1.01,0.21 0.29,0.14 0.52,0.33 0.68,0.55 0.16,0.23 0.24,0.46 0.24,0.71 0,0.29 -0.13,0.56 -0.38,0.83 -0.24,0.27 -0.53,0.45 -0.86,0.54 0.55,0.25 0.98,0.54 1.26,0.88 0.29,0.33 0.44,0.74 0.44,1.23 0,0.32 -0.1,0.61 -0.3,0.88 -0.19,0.26 -0.49,0.47 -0.89,0.63 -0.4,0.16 -0.89,0.24 -1.48,0.24zm0.69 -4.04c0.23,-0.1 0.42,-0.25 0.56,-0.45 0.15,-0.19 0.22,-0.44 0.22,-0.74 0,-0.22 -0.05,-0.43 -0.16,-0.62 -0.11,-0.19 -0.24,-0.34 -0.42,-0.45 -0.16,-0.11 -0.33,-0.17 -0.52,-0.17 -0.26,0 -0.48,0.1 -0.66,0.31 -0.17,0.2 -0.26,0.48 -0.26,0.84 0,0.49 0.42,0.91 1.24,1.28zm-0.78 3.81c0.39,0 0.7,-0.11 0.91,-0.32 0.22,-0.22 0.33,-0.53 0.33,-0.92 0,-0.29 -0.15,-0.59 -0.44,-0.89 -0.29,-0.3 -0.68,-0.55 -1.16,-0.76 -0.35,0.12 -0.62,0.3 -0.81,0.55 -0.2,0.24 -0.29,0.54 -0.29,0.92 0,0.25 0.06,0.49 0.19,0.71 0.13,0.22 0.31,0.39 0.53,0.52 0.23,0.12 0.47,0.19 0.74,0.19zm5.79 0.23c-0.77,0 -1.38,-0.28 -1.82,-0.83 -0.44,-0.55 -0.66,-1.39 -0.66,-2.52 0,-1.1 0.24,-1.93 0.72,-2.5 0.48,-0.57 1.14,-0.85 1.99,-0.85 0.36,0 0.67,0.06 0.94,0.18 0.28,0.12 0.49,0.27 0.63,0.45 0.14,0.19 0.22,0.37 0.22,0.56 0,0.21 -0.07,0.38 -0.2,0.51 -0.12,0.12 -0.28,0.18 -0.49,0.18 -0.09,0 -0.17,-0.01 -0.26,-0.02l-0.11 -0.02 0 -1.47 -0.17 -0.07c-0.14,-0.05 -0.26,-0.07 -0.38,-0.07 -0.3,0 -0.55,0.08 -0.74,0.24 -0.19,0.16 -0.34,0.45 -0.44,0.88 -0.1,0.43 -0.15,1.03 -0.15,1.82 0.07,-0.11 0.15,-0.2 0.25,-0.28 0.23,-0.18 0.5,-0.28 0.81,-0.28 0.44,0 0.83,0.09 1.16,0.26 0.34,0.17 0.59,0.4 0.77,0.7 0.18,0.3 0.27,0.64 0.27,1.02 0,0.65 -0.21,1.17 -0.62,1.55 -0.4,0.37 -0.97,0.56 -1.72,0.56zm0 -0.19c0.12,0 0.24,-0.06 0.36,-0.18 0.12,-0.12 0.22,-0.32 0.3,-0.6 0.08,-0.27 0.12,-0.62 0.12,-1.05 0,-0.43 -0.04,-0.78 -0.13,-1.06 -0.08,-0.27 -0.18,-0.47 -0.31,-0.59 -0.12,-0.12 -0.25,-0.19 -0.39,-0.19 -0.25,0 -0.45,0.13 -0.6,0.37 -0.15,0.25 -0.22,0.63 -0.22,1.15 0,0.77 0.08,1.33 0.24,1.66 0.18,0.33 0.38,0.49 0.63,0.49zm5.78 -0.09l0.55 -0.14 0 -5.87 -0.55 -0.13 0 -0.14 2.34 0c1.1,0 1.93,0.28 2.52,0.84 0.58,0.56 0.88,1.35 0.88,2.37 0,1.01 -0.3,1.8 -0.88,2.37 -0.59,0.56 -1.42,0.84 -2.52,0.84l-2.34 0 0 -0.14zm2.34 -0.09c0.57,0 1.01,-0.23 1.32,-0.69 0.31,-0.46 0.47,-1.23 0.47,-2.29 0,-1.07 -0.16,-1.83 -0.47,-2.29 -0.31,-0.46 -0.75,-0.69 -1.32,-0.69l-0.27 0 0 5.96 0.27 0zm3.3 0.09l0.73 -0.27 2.53 -6.1 0.27 0 2.62 6.23 0.46 0.14 0 0.14 -1.11 0c-0.31,0 -0.57,-0.07 -0.77,-0.21 -0.21,-0.15 -0.36,-0.34 -0.45,-0.57l-0.47 -1.1 -2.19 0 -0.61 1.47 0.69 0.27 0 0.14 -1.7 0 0 -0.14zm1.71 -1.97l2.01 0 -1.01 -2.41 -1 2.41zm5.85 1.97l0.55 -0.14 0 -2.11 -1.88 -3.76 -0.46 -0.13 0 -0.14 1.15 0c0.32,0 0.57,0.07 0.76,0.2 0.2,0.13 0.36,0.33 0.48,0.58l1.36 2.7 1.39 -3.07 -0.69 -0.27 0 -0.14 1.75 0 0 0.14 -0.74 0.27 -1.6 3.53 0 2.2 0.55 0.14 0 0.14 -2.62 0 0 -0.14zm6.74 0.28c-0.43,0 -0.84,-0.1 -1.22,-0.3 -0.17,-0.08 -0.31,-0.18 -0.43,-0.3 -0.08,0.14 -0.19,0.27 -0.32,0.38 -0.11,0.08 -0.17,0.12 -0.18,0.13l-0.23 0 0 -1.75 0.37 0c0.09,0.3 0.22,0.57 0.38,0.81 0.37,0.53 0.86,0.8 1.45,0.8 0.35,0 0.63,-0.11 0.84,-0.31 0.2,-0.21 0.31,-0.49 0.31,-0.84 0,-0.2 -0.06,-0.38 -0.19,-0.54 -0.11,-0.16 -0.26,-0.3 -0.44,-0.42 -0.17,-0.12 -0.42,-0.28 -0.74,-0.46 -0.4,-0.23 -0.73,-0.43 -0.98,-0.62 -0.25,-0.18 -0.47,-0.41 -0.64,-0.68 -0.18,-0.28 -0.27,-0.62 -0.27,-0.99 0,-0.3 0.08,-0.57 0.25,-0.81 0.17,-0.25 0.42,-0.44 0.76,-0.58 0.34,-0.15 0.75,-0.22 1.24,-0.22 0.35,0 0.71,0.1 1.06,0.3 0.14,0.08 0.27,0.17 0.41,0.3 0.1,-0.16 0.21,-0.29 0.32,-0.38 0.11,-0.08 0.17,-0.12 0.18,-0.13l0.23 0 0 1.75 -0.37 0c-0.08,-0.3 -0.2,-0.56 -0.36,-0.8 -0.14,-0.24 -0.33,-0.43 -0.55,-0.58 -0.21,-0.15 -0.46,-0.23 -0.74,-0.23 -0.24,0 -0.44,0.09 -0.61,0.28 -0.17,0.19 -0.26,0.44 -0.26,0.73 0,0.23 0.06,0.43 0.19,0.61 0.14,0.18 0.3,0.34 0.49,0.47 0.19,0.14 0.46,0.3 0.79,0.49 0.38,0.22 0.69,0.41 0.93,0.58 0.24,0.18 0.44,0.39 0.61,0.65 0.16,0.25 0.25,0.54 0.25,0.87 0,0.33 -0.1,0.63 -0.29,0.91 -0.19,0.27 -0.47,0.48 -0.85,0.64 -0.38,0.16 -0.84,0.24 -1.39,0.24z"/>
  <path class="fil1" d="M86 7.05c-0.14,-0.68 -0.76,-1.19 -1.5,-1.19 -0.16,0 -0.3,0.13 -0.3,0.3 0,0.16 0.14,0.3 0.3,0.3 0.51,0 0.92,0.39 0.92,0.89 0,0.49 -0.41,0.89 -0.92,0.89 -0.16,0 -0.3,0.13 -0.3,0.29 0,0.17 0.14,0.3 0.3,0.3 0.74,0 1.36,-0.51 1.5,-1.19l4 0 0 2.67 -16.48 0 0 -2.67 4.27 0 0.92 0c0.17,0 0.3,-0.13 0.3,-0.29 0,-0.17 -0.13,-0.3 -0.3,-0.3l-0.55 0c0.12,-0.35 0.46,-0.59 0.85,-0.59 0.51,0 0.92,0.39 0.92,0.89 0,0.49 -0.41,0.89 -0.92,0.89 -0.16,0 -0.3,0.13 -0.3,0.29 0,0.17 0.14,0.3 0.3,0.3 0.85,0 1.53,-0.67 1.53,-1.48 0,-0.82 -0.68,-1.49 -1.53,-1.49 -0.73,0 -1.35,0.51 -1.49,1.19l-4.61 0 0 3.86 0 11.87 17.7 0 0 -11.87 0 -3.86 -4.61 0zm4 15.13l-16.48 0 0 -11.27 16.48 0 0 11.27z"/>
  <path class="fil1" d="M80.84 6.46c0.51,0 0.92,0.39 0.92,0.89 0,0.49 -0.41,0.89 -0.92,0.89 -0.16,0 -0.3,0.13 -0.3,0.29 0,0.17 0.14,0.3 0.3,0.3 0.85,0 1.53,-0.67 1.53,-1.48 0,-0.82 -0.68,-1.49 -1.53,-1.49 -0.16,0 -0.3,0.13 -0.3,0.3 0,0.16 0.14,0.3 0.3,0.3z"/>
  <path class="fil1" d="M82.67 6.46c0.51,0 0.92,0.39 0.92,0.89 0,0.49 -0.41,0.89 -0.92,0.89 -0.16,0 -0.3,0.13 -0.3,0.29 0,0.17 0.14,0.3 0.3,0.3 0.85,0 1.53,-0.67 1.53,-1.48 0,-0.82 -0.68,-1.49 -1.53,-1.49 -0.16,0 -0.3,0.13 -0.3,0.3 0,0.16 0.14,0.3 0.3,0.3z"/>
  <path class="fil1" d="M75.66 13.28l6.71 0c0.17,0 0.3,-0.13 0.3,-0.3 0,-0.16 -0.13,-0.29 -0.3,-0.29l-6.71 0c-0.17,0 -0.31,0.13 -0.31,0.29 0,0.17 0.14,0.3 0.31,0.3z"/>
  <path class="fil1" d="M87.86 17.44l-4.57 0c-0.17,0 -0.31,0.13 -0.31,0.29 0,0.17 0.14,0.3 0.31,0.3l4.57 0c0.17,0 0.31,-0.13 0.31,-0.3 0,-0.16 -0.14,-0.29 -0.31,-0.29z"/>
  <path class="fil1" d="M75.66 15.66l3.05 0c0.17,0 0.3,-0.14 0.3,-0.3 0,-0.17 -0.13,-0.3 -0.3,-0.3l-3.05 0c-0.17,0 -0.31,0.13 -0.31,0.3 0,0.16 0.14,0.3 0.31,0.3z"/>
  <path class="fil1" d="M87.86 19.81l-3.05 0c-0.17,0 -0.31,0.13 -0.31,0.3 0,0.16 0.14,0.29 0.31,0.29l3.05 0c0.17,0 0.31,-0.13 0.31,-0.29 0,-0.17 -0.14,-0.3 -0.31,-0.3z"/>
  <path class="fil1" d="M81.45 15.36c0,0.16 0.14,0.3 0.31,0.3l4.58 0c0.16,0 0.3,-0.14 0.3,-0.3 0,-0.17 -0.14,-0.3 -0.3,-0.3l-4.58 0c-0.17,0 -0.31,0.13 -0.31,0.3z"/>
  <path class="fil1" d="M80.45 15.57c0.06,-0.06 0.09,-0.13 0.09,-0.21 0,-0.08 -0.03,-0.16 -0.09,-0.21 -0.11,-0.11 -0.32,-0.11 -0.43,0 -0.06,0.05 -0.09,0.13 -0.09,0.21 0,0.08 0.03,0.15 0.09,0.21 0.06,0.06 0.14,0.09 0.21,0.09 0.08,0 0.16,-0.03 0.22,-0.09z"/>
  <path class="fil1" d="M76.88 17.73c0,0.17 0.14,0.3 0.3,0.3l4.58 0c0.17,0 0.3,-0.13 0.3,-0.3 0,-0.16 -0.13,-0.29 -0.3,-0.29l-4.58 0c-0.16,0 -0.3,0.13 -0.3,0.29z"/>
  <path class="fil1" d="M75.66 18.03c0.08,0 0.16,-0.03 0.22,-0.09 0.05,-0.05 0.08,-0.13 0.08,-0.21 0,-0.07 -0.03,-0.15 -0.08,-0.21 -0.12,-0.11 -0.32,-0.11 -0.44,0 -0.05,0.06 -0.09,0.14 -0.09,0.21 0,0.08 0.04,0.16 0.09,0.21 0.06,0.06 0.14,0.09 0.22,0.09z"/>
  <path class="fil1" d="M87.86 15.66c0.08,0 0.16,-0.03 0.22,-0.09 0.05,-0.06 0.09,-0.13 0.09,-0.21 0,-0.08 -0.04,-0.16 -0.09,-0.21 -0.12,-0.11 -0.32,-0.11 -0.44,0 -0.05,0.05 -0.09,0.13 -0.09,0.21 0,0.08 0.04,0.15 0.09,0.21 0.06,0.06 0.14,0.09 0.22,0.09z"/>
  <path class="fil1" d="M83.29 19.81l-7.63 0c-0.17,0 -0.31,0.13 -0.31,0.3 0,0.16 0.14,0.29 0.31,0.29l7.63 0c0.16,0 0.3,-0.13 0.3,-0.29 0,-0.17 -0.14,-0.3 -0.3,-0.3z"/>
 </g>
</svg>
