<?xml version="1.0" encoding="UTF-8"?>
<!DOCTYPE svg PUBLIC "-//W3C//DTD SVG 1.1//EN" "http://www.w3.org/Graphics/SVG/1.1/DTD/svg11.dtd">
<!-- Creator: CorelDRAW 2020 (64-Bit) -->
<svg xmlns="http://www.w3.org/2000/svg" xml:space="preserve" width="252px" height="54px" version="1.1" style="shape-rendering:geometricPrecision; text-rendering:geometricPrecision; image-rendering:optimizeQuality; fill-rule:evenodd; clip-rule:evenodd"
viewBox="0 0 228.71 48.96"
 xmlns:xlink="http://www.w3.org/1999/xlink"
 xmlns:xodm="http://www.corel.com/coreldraw/odm/2003">
 <defs>
  <style type="text/css">
   <![CDATA[
    .fil0 {fill:#FEFEFE}
    .fil1 {fill:#FEFEFE;fill-rule:nonzero}
   ]]>
  </style>
 </defs>
 <g id="Слой_x0020_1">
  <metadata id="CorelCorpID_0Corel-Layer"/>
  <polygon class="fil0" points="106.97,0 107.55,0 107.55,48.96 106.97,48.96 "/>
  <path class="fil1" d="M47.23 29.99l0 -0.23 1.08 -0.31 0 -2.32 -4.41 0 -0.31 -0.47 5.8 -7.66 1.47 0 0 7.43 1.63 0 0 0.7 -1.63 0 0 2.32 1.09 0.31 0 0.23 -4.72 0zm-2.79 -3.56l3.87 0 0 -5.11 -3.87 5.11zm13.32 3.79c-0.84,0 -1.6,-0.22 -2.28,-0.66 -0.68,-0.45 -1.22,-1.09 -1.63,-1.94 -0.39,-0.85 -0.58,-1.87 -0.58,-3.05 0,-1.17 0.19,-2.18 0.58,-3.03 0.41,-0.86 0.95,-1.51 1.63,-1.95 0.68,-0.45 1.44,-0.67 2.28,-0.67 0.83,0 1.59,0.22 2.27,0.67 0.68,0.44 1.22,1.09 1.61,1.95 0.4,0.85 0.61,1.86 0.61,3.03 0,1.18 -0.21,2.2 -0.61,3.05 -0.39,0.85 -0.93,1.49 -1.61,1.94 -0.68,0.44 -1.44,0.66 -2.27,0.66zm0 -0.31c1.18,0 1.78,-1.78 1.78,-5.34 0,-3.56 -0.6,-5.34 -1.78,-5.34 -1.19,0 -1.78,1.78 -1.78,5.34 0,3.56 0.59,5.34 1.78,5.34zm11.69 -8.82l0 8.21 1.24 0.46 0 0.23 -2.95 0 0 -0.23 1.24 -0.46 0 -9.68 -0.93 -0.23 0 -0.24 1.94 0c0.54,0 0.96,0.12 1.27,0.35 0.32,0.21 0.59,0.54 0.82,0.97l3.37 6.46 2.59 -6.46c0.18,-0.45 0.41,-0.78 0.71,-0.99 0.3,-0.22 0.76,-0.33 1.38,-0.33l1.63 0 0 0.24 -0.93 0.23 0 9.91 0.93 0.23 0 0.23 -4.42 0 0 -0.23 0.93 -0.23 0 -8.44 -3.64 9.06 -0.46 0 -4.72 -9.06zm13.55 8.21c0,-0.61 0.12,-1.17 0.36,-1.66 0.24,-0.51 0.54,-0.95 0.89,-1.32 0.35,-0.37 0.81,-0.81 1.38,-1.31 0.53,-0.47 0.94,-0.85 1.24,-1.16 0.3,-0.32 0.55,-0.68 0.76,-1.07 0.21,-0.41 0.31,-0.84 0.31,-1.3 0,-0.68 -0.17,-1.22 -0.5,-1.6 -0.33,-0.38 -0.76,-0.57 -1.28,-0.57 -0.3,0 -0.61,0.04 -0.92,0.12l-0.32 0.11 0 2.48 -0.2 0.05c-0.17,0.02 -0.31,0.03 -0.42,0.03 -0.35,0 -0.63,-0.11 -0.85,-0.31 -0.21,-0.22 -0.31,-0.5 -0.31,-0.86 0,-0.33 0.12,-0.65 0.37,-0.96 0.26,-0.3 0.64,-0.56 1.13,-0.75 0.51,-0.2 1.12,-0.3 1.83,-0.3 1.39,0 2.42,0.28 3.09,0.84 0.67,0.56 1.01,1.33 1.01,2.34 0,0.63 -0.17,1.17 -0.5,1.62 -0.32,0.46 -0.71,0.83 -1.19,1.13 -0.46,0.3 -1.09,0.64 -1.87,1.02 -0.66,0.32 -1.2,0.61 -1.61,0.86 -0.4,0.23 -0.78,0.52 -1.13,0.86 -0.34,0.34 -0.58,0.73 -0.73,1.16l5.73 0c0.07,-0.55 0.25,-1.02 0.53,-1.39 0.11,-0.18 0.24,-0.33 0.4,-0.46l0.46 0 0 3.09 -7.66 0 0 -0.69z"/>
  <path class="fil0" d="M2.74 10.24c0,-0.19 0.16,-0.35 0.36,-0.35l26.11 0c0.2,0 0.36,0.16 0.36,0.35l0 25.16c0,0.19 -0.16,0.34 -0.36,0.34 -0.2,0 -0.36,-0.15 -0.36,-0.34l0 -24.81 -25.75 0c-0.2,0 -0.36,-0.16 -0.36,-0.35z"/>
  <path class="fil1" d="M3.12 35.9l0.12 0 0 -0.11 0 -21.64 1.48 1.48c0.18,0.19 0.48,0.19 0.67,0 0.18,-0.18 0.18,-0.48 0,-0.67l-2.29 -2.28c-0.19,-0.19 -0.49,-0.19 -0.67,0l-2.29 2.28c-0.19,0.19 -0.19,0.49 0,0.67 0.18,0.19 0.48,0.19 0.67,0l1.48 -1.48 0 21.64 0 0.11 0.11 0 0.72 0z"/>
  <path class="fil1" d="M2.29 36.15l0 0.11 0.11 0 21.75 0 -1.49 1.48c-0.18,0.19 -0.18,0.49 0,0.67 0.19,0.19 0.49,0.19 0.68,0l2.3 -2.29c0.18,-0.18 0.18,-0.48 0,-0.67l-2.3 -2.28c-0.19,-0.19 -0.49,-0.19 -0.68,0 -0.18,0.18 -0.18,0.48 0,0.67l1.49 1.48 -21.75 0 -0.11 0 0 0.11 0 0.72z"/>
  <path class="fil0" d="M12.68 10c0.14,0.14 0.14,0.37 0,0.51l-4.32 4.31c-0.14,0.14 -0.36,0.14 -0.51,0 -0.14,-0.14 -0.14,-0.37 0,-0.51l4.32 -4.31c0.14,-0.14 0.37,-0.14 0.51,0z"/>
  <path class="fil0" d="M29.35 27.14c0.14,0.14 0.14,0.37 0,0.51l-3.96 3.96c-0.14,0.14 -0.37,0.14 -0.51,0 -0.14,-0.14 -0.14,-0.37 0,-0.51l3.96 -3.96c0.14,-0.14 0.36,-0.14 0.51,0z"/>
  <path class="fil0" d="M18.07 10c0.14,0.14 0.15,0.36 0.01,0.5l-9.36 9.48c-0.13,0.14 -0.36,0.14 -0.5,0 -0.15,-0.14 -0.15,-0.37 -0.01,-0.51l9.35 -9.47c0.14,-0.14 0.37,-0.14 0.51,0z"/>
  <path class="fil0" d="M29.46 21.15c0.15,0.14 0.15,0.37 0,0.51l-9.11 9.11c-0.14,0.14 -0.37,0.14 -0.51,0 -0.14,-0.14 -0.14,-0.37 0,-0.51l9.12 -9.11c0.14,-0.14 0.36,-0.14 0.5,0z"/>
  <path class="fil0" d="M23.83 10.12c0.14,0.14 0.14,0.37 0,0.51l-14.99 14.75c-0.14,0.13 -0.37,0.13 -0.51,-0.01 -0.14,-0.14 -0.14,-0.37 0.01,-0.51l14.98 -14.74c0.14,-0.14 0.37,-0.14 0.51,0z"/>
  <path class="fil0" d="M29.47 15.51c0.14,0.14 0.14,0.37 0,0.51l-15.11 15.11c-0.14,0.14 -0.37,0.14 -0.51,0 -0.14,-0.14 -0.14,-0.37 0,-0.51l15.11 -15.11c0.14,-0.14 0.36,-0.14 0.51,0z"/>
  <path class="fil0" d="M29.23 10.12c0.14,0.14 0.14,0.37 0,0.51l-20.63 20.62c-0.14,0.14 -0.37,0.14 -0.51,0 -0.14,-0.14 -0.14,-0.37 0,-0.51l20.63 -20.62c0.14,-0.14 0.36,-0.14 0.51,0z"/>
  <path class="fil1" d="M170.21 30.05l0 -0.23 1.09 -0.31 0 -2.32 -4.41 0 -0.31 -0.46 5.8 -7.67 1.47 0 0 7.43 1.63 0 0 0.7 -1.63 0 0 2.32 1.09 0.31 0 0.23 -4.73 0zm-2.78 -3.56l3.87 0 0 -5.11 -3.87 5.11zm13.3 3.8c-1.3,0 -2.29,-0.26 -2.96,-0.78 -0.66,-0.51 -0.99,-1.18 -0.99,-2.01 0,-0.57 0.25,-1.12 0.74,-1.64 0.5,-0.54 1.1,-0.92 1.82,-1.15 -0.69,-0.38 -1.21,-0.8 -1.57,-1.25 -0.35,-0.47 -0.53,-1.03 -0.53,-1.69 0,-0.82 0.34,-1.5 1,-2.01 0.67,-0.52 1.65,-0.78 2.95,-0.78 0.65,0 1.22,0.12 1.71,0.36 0.49,0.24 0.87,0.55 1.14,0.93 0.27,0.38 0.4,0.78 0.4,1.19 0,0.49 -0.21,0.96 -0.63,1.41 -0.41,0.45 -0.9,0.76 -1.46,0.91 0.94,0.42 1.65,0.91 2.14,1.47 0.49,0.57 0.73,1.27 0.73,2.09 0,0.54 -0.17,1.03 -0.5,1.48 -0.33,0.44 -0.83,0.8 -1.5,1.06 -0.67,0.27 -1.5,0.41 -2.49,0.41zm1.16 -6.82c0.39,-0.17 0.71,-0.42 0.94,-0.75 0.25,-0.33 0.38,-0.75 0.38,-1.26 0,-0.37 -0.1,-0.72 -0.28,-1.04 -0.18,-0.32 -0.41,-0.57 -0.7,-0.75 -0.28,-0.2 -0.57,-0.3 -0.88,-0.3 -0.45,0 -0.82,0.18 -1.12,0.53 -0.29,0.34 -0.43,0.81 -0.43,1.41 0,0.82 0.7,1.54 2.09,2.16zm-1.32 6.43c0.66,0 1.17,-0.18 1.54,-0.54 0.37,-0.37 0.55,-0.89 0.55,-1.55 0,-0.5 -0.24,-1 -0.74,-1.5 -0.49,-0.51 -1.15,-0.94 -1.97,-1.29 -0.57,0.21 -1.03,0.52 -1.36,0.93 -0.33,0.4 -0.49,0.92 -0.49,1.55 0,0.43 0.1,0.84 0.32,1.21 0.23,0.36 0.53,0.65 0.9,0.86 0.38,0.22 0.8,0.33 1.25,0.33zm10.23 -0.08l0.93 -0.23 0 -9.91 -0.93 -0.23 0 -0.23 3.95 0c1.84,0 3.26,0.47 4.24,1.42 0.99,0.95 1.49,2.28 1.49,4 0,1.71 -0.5,3.04 -1.49,3.99 -0.98,0.95 -2.4,1.42 -4.24,1.42l-3.95 0 0 -0.23zm3.95 -0.15c0.96,0 1.7,-0.39 2.23,-1.16 0.52,-0.79 0.79,-2.08 0.79,-3.87 0,-1.8 -0.27,-3.09 -0.79,-3.86 -0.53,-0.78 -1.27,-1.18 -2.23,-1.18l-0.47 0 0 10.07 0.47 0zm5.56 0.15l1.24 -0.46 4.26 -10.3 0.46 0 4.42 10.53 0.77 0.23 0 0.23 -1.86 0c-0.53,0 -0.97,-0.11 -1.31,-0.35 -0.34,-0.25 -0.6,-0.57 -0.76,-0.96l-0.79 -1.86 -3.7 0 -1.02 2.48 1.16 0.46 0 0.23 -2.87 0 0 -0.23zm2.88 -3.33l3.39 0 -1.7 -4.07 -1.69 4.07zm9.89 3.33l0.93 -0.23 0 -3.56 -3.18 -6.35 -0.77 -0.23 0 -0.23 1.93 0c0.54,0 0.97,0.11 1.29,0.34 0.33,0.22 0.6,0.55 0.8,0.97l2.29 4.57 2.36 -5.19 -1.16 -0.46 0 -0.23 2.94 0 0 0.23 -1.24 0.46 -2.71 5.96 0 3.72 0.93 0.23 0 0.23 -4.41 0 0 -0.23zm11.37 0.47c-0.73,0 -1.42,-0.17 -2.06,-0.5 -0.29,-0.14 -0.53,-0.31 -0.72,-0.51 -0.15,0.24 -0.33,0.45 -0.55,0.63 -0.18,0.14 -0.29,0.21 -0.31,0.22l-0.38 0 0 -2.94 0.62 0c0.15,0.51 0.37,0.96 0.65,1.36 0.63,0.9 1.44,1.35 2.44,1.35 0.59,0 1.06,-0.18 1.41,-0.53 0.35,-0.35 0.53,-0.82 0.53,-1.41 0,-0.34 -0.11,-0.64 -0.31,-0.91 -0.2,-0.27 -0.45,-0.51 -0.74,-0.71 -0.3,-0.21 -0.72,-0.47 -1.26,-0.78 -0.68,-0.38 -1.23,-0.72 -1.66,-1.03 -0.42,-0.31 -0.78,-0.7 -1.08,-1.16 -0.3,-0.48 -0.45,-1.04 -0.45,-1.68 0,-0.5 0.14,-0.96 0.42,-1.36 0.29,-0.41 0.72,-0.74 1.28,-0.97 0.57,-0.25 1.27,-0.38 2.1,-0.38 0.59,0 1.19,0.17 1.79,0.52 0.23,0.12 0.45,0.28 0.68,0.49 0.18,-0.27 0.36,-0.48 0.54,-0.63 0.19,-0.14 0.29,-0.21 0.31,-0.22l0.39 0 0 2.94 -0.62 0c-0.13,-0.49 -0.33,-0.94 -0.6,-1.35 -0.25,-0.39 -0.56,-0.71 -0.93,-0.97 -0.36,-0.26 -0.78,-0.39 -1.26,-0.39 -0.4,0 -0.74,0.16 -1.03,0.48 -0.29,0.32 -0.44,0.73 -0.44,1.22 0,0.39 0.11,0.73 0.33,1.04 0.23,0.3 0.5,0.56 0.82,0.79 0.33,0.23 0.77,0.5 1.33,0.82 0.65,0.37 1.18,0.7 1.58,0.99 0.4,0.29 0.74,0.65 1.02,1.09 0.28,0.42 0.42,0.91 0.42,1.47 0,0.55 -0.16,1.07 -0.48,1.53 -0.32,0.45 -0.8,0.82 -1.44,1.08 -0.64,0.27 -1.42,0.41 -2.34,0.41z"/>
  <path class="fil1" d="M145.13 11.9c-0.24,-1.15 -1.28,-2.01 -2.52,-2.01 -0.29,0 -0.52,0.23 -0.52,0.5 0,0.28 0.23,0.5 0.52,0.5 0.85,0 1.54,0.68 1.54,1.51 0,0.82 -0.69,1.5 -1.54,1.5 -0.29,0 -0.52,0.22 -0.52,0.5 0,0.28 0.23,0.5 0.52,0.5 1.24,0 2.28,-0.86 2.52,-2l6.74 0 0 4.5 -27.79 0 0 -4.5 7.2 0 1.55 0c0.28,0 0.51,-0.23 0.51,-0.5 0,-0.28 -0.23,-0.5 -0.51,-0.5l-0.94 0c0.22,-0.59 0.78,-1.01 1.45,-1.01 0.85,0 1.55,0.68 1.55,1.51 0,0.82 -0.7,1.5 -1.55,1.5 -0.28,0 -0.51,0.22 -0.51,0.5 0,0.28 0.23,0.5 0.51,0.5 1.42,0 2.58,-1.12 2.58,-2.5 0,-1.38 -1.16,-2.51 -2.58,-2.51 -1.24,0 -2.28,0.86 -2.52,2.01l-7.77 0 0 6.51 0 20.03 29.85 0 0 -20.03 0 -6.51 -7.77 0zm6.74 25.54l-27.79 0 0 -19.03 27.79 0 0 19.03z"/>
  <path class="fil1" d="M136.43 10.89c0.85,0 1.54,0.68 1.54,1.51 0,0.82 -0.69,1.5 -1.54,1.5 -0.28,0 -0.51,0.22 -0.51,0.5 0,0.28 0.23,0.5 0.51,0.5 1.42,0 2.57,-1.12 2.57,-2.5 0,-1.38 -1.15,-2.51 -2.57,-2.51 -0.28,0 -0.51,0.23 -0.51,0.5 0,0.28 0.23,0.5 0.51,0.5z"/>
  <path class="fil1" d="M139.52 10.89c0.85,0 1.54,0.68 1.54,1.51 0,0.82 -0.69,1.5 -1.54,1.5 -0.29,0 -0.52,0.22 -0.52,0.5 0,0.28 0.23,0.5 0.52,0.5 1.42,0 2.57,-1.12 2.57,-2.5 0,-1.38 -1.15,-2.51 -2.57,-2.51 -0.29,0 -0.52,0.23 -0.52,0.5 0,0.28 0.23,0.5 0.52,0.5z"/>
  <path class="fil1" d="M127.68 22.41l11.32 0c0.29,0 0.52,-0.22 0.52,-0.5 0,-0.28 -0.23,-0.5 -0.52,-0.5l-11.32 0c-0.28,0 -0.51,0.22 -0.51,0.5 0,0.28 0.23,0.5 0.51,0.5z"/>
  <path class="fil1" d="M148.27 29.42l-7.72 0c-0.29,0 -0.52,0.23 -0.52,0.5 0,0.28 0.23,0.51 0.52,0.51l7.72 0c0.28,0 0.51,-0.23 0.51,-0.51 0,-0.27 -0.23,-0.5 -0.51,-0.5z"/>
  <path class="fil1" d="M127.68 26.42l5.15 0c0.28,0 0.51,-0.22 0.51,-0.5 0,-0.28 -0.23,-0.5 -0.51,-0.5l-5.15 0c-0.28,0 -0.51,0.22 -0.51,0.5 0,0.28 0.23,0.5 0.51,0.5z"/>
  <path class="fil1" d="M148.27 33.43l-5.15 0c-0.28,0 -0.51,0.22 -0.51,0.5 0,0.28 0.23,0.5 0.51,0.5l5.15 0c0.28,0 0.51,-0.22 0.51,-0.5 0,-0.28 -0.23,-0.5 -0.51,-0.5z"/>
  <path class="fil1" d="M137.46 25.92c0,0.28 0.23,0.5 0.51,0.5l7.72 0c0.29,0 0.52,-0.22 0.52,-0.5 0,-0.28 -0.23,-0.5 -0.52,-0.5l-7.72 0c-0.28,0 -0.51,0.22 -0.51,0.5z"/>
  <path class="fil1" d="M135.77 26.27c0.09,-0.09 0.15,-0.22 0.15,-0.35 0,-0.13 -0.06,-0.26 -0.15,-0.36 -0.19,-0.18 -0.54,-0.18 -0.73,0 -0.1,0.1 -0.15,0.23 -0.15,0.36 0,0.13 0.05,0.26 0.15,0.35 0.09,0.1 0.23,0.15 0.36,0.15 0.14,0 0.27,-0.05 0.37,-0.15z"/>
  <path class="fil1" d="M129.74 29.92c0,0.28 0.23,0.51 0.51,0.51l7.72 0c0.29,0 0.52,-0.23 0.52,-0.51 0,-0.27 -0.23,-0.5 -0.52,-0.5l-7.72 0c-0.28,0 -0.51,0.23 -0.51,0.5z"/>
  <path class="fil1" d="M127.68 30.43c0.13,0 0.27,-0.06 0.37,-0.15 0.09,-0.09 0.14,-0.22 0.14,-0.35 0,-0.14 -0.05,-0.27 -0.14,-0.36 -0.19,-0.19 -0.54,-0.19 -0.73,0 -0.1,0.09 -0.15,0.22 -0.15,0.36 0,0.13 0.05,0.26 0.15,0.35 0.09,0.09 0.22,0.15 0.36,0.15z"/>
  <path class="fil1" d="M148.27 26.42c0.13,0 0.27,-0.05 0.36,-0.15 0.1,-0.09 0.15,-0.22 0.15,-0.35 0,-0.13 -0.05,-0.26 -0.15,-0.36 -0.19,-0.18 -0.54,-0.18 -0.73,0 -0.09,0.1 -0.15,0.23 -0.15,0.36 0,0.13 0.06,0.26 0.15,0.35 0.1,0.1 0.24,0.15 0.37,0.15z"/>
  <path class="fil1" d="M140.55 33.43l-12.87 0c-0.28,0 -0.51,0.22 -0.51,0.5 0,0.28 0.23,0.5 0.51,0.5l12.87 0c0.28,0 0.51,-0.22 0.51,-0.5 0,-0.28 -0.23,-0.5 -0.51,-0.5z"/>
 </g>
</svg>
