<?xml version="1.0" encoding="UTF-8"?>
<!DOCTYPE svg PUBLIC "-//W3C//DTD SVG 1.1//EN" "http://www.w3.org/Graphics/SVG/1.1/DTD/svg11.dtd">
<!-- Creator: CorelDRAW 2020 (64-Bit) -->
<svg xmlns="http://www.w3.org/2000/svg" xml:space="preserve" width="71px" height="28px" version="1.1" style="shape-rendering:geometricPrecision; text-rendering:geometricPrecision; image-rendering:optimizeQuality; fill-rule:evenodd; clip-rule:evenodd"
viewBox="0 0 71 28"
 xmlns:xlink="http://www.w3.org/1999/xlink"
 xmlns:xodm="http://www.corel.com/coreldraw/odm/2003">
 <defs>
  <style type="text/css">
   <![CDATA[
    .str0 {stroke:white;stroke-width:1.5;stroke-linecap:round;stroke-linejoin:round;stroke-miterlimit:22.9256}
    .fil2 {fill:none;fill-rule:nonzero}
    .fil1 {fill:#FEFEFE;fill-rule:nonzero}
    .fil0 {fill:#E3B873;fill-rule:nonzero}
   ]]>
  </style>
 </defs>
 <g id="Слой_x0020_1">
  <metadata id="CorelCorpID_0Corel-Layer"/>
  <circle class="fil0" cx="14" cy="14" r="14"/>
  <path class="fil1" d="M8.4 8.05l11.2 0c0.59,0 1.13,0.24 1.52,0.63 0.39,0.39 0.63,0.93 0.63,1.52l0 8.4c0,0.59 -0.24,1.13 -0.63,1.52 -0.39,0.39 -0.93,0.63 -1.52,0.63l-11.2 0c-0.59,0 -1.13,-0.24 -1.52,-0.63 -0.39,-0.39 -0.63,-0.93 -0.63,-1.52l0 -8.4c0,-0.59 0.24,-1.13 0.63,-1.52 0.39,-0.39 0.93,-0.63 1.52,-0.63zm11.2 1.5l-11.2 0c-0.18,0 -0.34,0.07 -0.46,0.19 -0.12,0.12 -0.19,0.28 -0.19,0.46l0 8.4c0,0.18 0.07,0.34 0.19,0.46 0.12,0.12 0.28,0.19 0.46,0.19l11.2 0c0.18,0 0.34,-0.07 0.46,-0.19 0.12,-0.12 0.19,-0.28 0.19,-0.46l0 -8.4c0,-0.18 -0.07,-0.34 -0.19,-0.46 -0.12,-0.12 -0.28,-0.19 -0.46,-0.19z"/>
  <polyline class="fil2 str0" points="21,10.2 14,15.1 7,10.2 "/>
  <circle class="fil0" cx="57" cy="14" r="14"/>
  <path class="fil1" d="M60 9.15l-6 0c-0.62,0 -1.18,0.25 -1.59,0.66 -0.41,0.4 -0.66,0.97 -0.66,1.59l0 6c0,0.62 0.25,1.18 0.66,1.59 0.41,0.41 0.97,0.66 1.59,0.66l6 0c0.62,0 1.19,-0.25 1.59,-0.66l0 0c0.41,-0.4 0.66,-0.97 0.66,-1.59l0 -6c0,-0.62 -0.25,-1.19 -0.66,-1.59l0 -0.01c-0.4,-0.4 -0.97,-0.65 -1.59,-0.65zm-6 -1.5l6 0c1.03,0 1.97,0.42 2.65,1.1l0 0c0.68,0.68 1.1,1.62 1.1,2.65l0 6c0,1.03 -0.42,1.97 -1.1,2.65l0 0c-0.68,0.68 -1.62,1.1 -2.65,1.1l-6 0c-1.03,0 -1.97,-0.42 -2.65,-1.1 -0.68,-0.68 -1.1,-1.62 -1.1,-2.65l0 -6c0,-1.04 0.42,-1.97 1.1,-2.65 0.68,-0.68 1.62,-1.1 2.65,-1.1z"/>
  <path class="fil2 str0" d="M59.4 14.02c0.07,0.5 -0.01,1.01 -0.24,1.46 -0.24,0.45 -0.6,0.81 -1.05,1.04 -0.46,0.22 -0.97,0.3 -1.47,0.22 -0.49,-0.08 -0.95,-0.31 -1.31,-0.67 -0.36,-0.36 -0.59,-0.82 -0.67,-1.32 -0.08,-0.49 0,-1 0.22,-1.46 0.23,-0.45 0.59,-0.81 1.04,-1.05 0.45,-0.23 0.96,-0.31 1.46,-0.24 0.51,0.07 0.98,0.31 1.34,0.68 0.37,0.36 0.6,0.83 0.68,1.34z"/>
 </g>
</svg>
