<?xml version="1.0" encoding="UTF-8"?>
<!DOCTYPE svg PUBLIC "-//W3C//DTD SVG 1.1//EN" "http://www.w3.org/Graphics/SVG/1.1/DTD/svg11.dtd">
<!-- Creator: CorelDRAW 2020 (64-Bit) -->
<svg xmlns="http://www.w3.org/2000/svg" xml:space="preserve" width="72px" height="72px" version="1.1" style="shape-rendering:geometricPrecision; text-rendering:geometricPrecision; image-rendering:optimizeQuality; fill-rule:evenodd; clip-rule:evenodd"
viewBox="0 0 41.19 41.19"
 xmlns:xlink="http://www.w3.org/1999/xlink"
 xmlns:xodm="http://www.corel.com/coreldraw/odm/2003">
 <defs>
  <style type="text/css">
   <![CDATA[
    .fil0 {fill:#E3B873}
    .fil1 {fill:#FEFEFE;fill-rule:nonzero}
   ]]>
  </style>
 </defs>
 <g id="Слой_x0020_1">
  <metadata id="CorelCorpID_0Corel-Layer"/>
  <g id="_2208276210576">
   <path class="fil0" d="M20.59 0c11.38,0 20.6,9.22 20.6,20.59 0,11.38 -9.22,20.6 -20.6,20.6 -11.37,0 -20.59,-9.22 -20.59,-20.6 0,-11.37 9.22,-20.59 20.59,-20.59z"/>
   <g>
    <path class="fil1" d="M20.79 24.76c-0.22,0 -0.39,0.17 -0.39,0.38l0 0.76c0,0.21 0.17,0.38 0.39,0.38 0.22,0 0.39,-0.17 0.39,-0.38l0 -0.76c0,-0.21 -0.17,-0.38 -0.39,-0.38z"/>
    <path class="fil1" d="M30.35 19.45l0 0c-0.26,-1.23 -0.83,-2.4 -1.67,-3.36 -0.81,-0.94 -1.84,-1.67 -2.99,-2.13 -0.19,-0.76 -0.58,-1.55 -1.35,-2.15 -0.76,-0.57 -1.52,-0.69 -1.55,-0.69l0 0c-0.11,-0.02 -0.23,0.02 -0.31,0.09 -0.09,0.07 -0.14,0.18 -0.14,0.29l0 1.89 -1.27 0c-0.34,-1.1 -1.38,-1.9 -2.61,-1.9 -1.26,0 -2.32,0.84 -2.63,1.97 -1.81,0.25 -3.46,1.1 -4.69,2.42l0.02 0.02 -0.02 -0.02c-1.3,1.4 -2.02,3.21 -2.02,5.09 0,4.23 2.25,7.67 2.94,8.62 0.22,0.3 0.58,0.48 0.96,0.48l1.55 0c0.64,0 1.17,-0.51 1.17,-1.14l0 -0.46c0.38,0.06 0.77,0.09 1.16,0.09l3.5 0 0 0.37c0,0.63 0.52,1.14 1.17,1.14l1.7 0c0.55,0 1.03,-0.38 1.14,-0.9l0.19 -0.83c2.39,-0.58 4.31,-2.21 5.26,-4.33l1.42 0c0.43,0 0.78,-0.34 0.78,-0.76l0 -3.03c0,-0.21 -0.08,-0.4 -0.22,-0.54 -0.15,-0.15 -0.35,-0.23 -0.56,-0.23l0 0 0 0 0 0 0 0 0 0 0 0 0 0 -0.93 0c0,0 0,0 0,0zm0.93 3.77l0 0 0 0.02 -1.13 0c0.2,-0.59 0.32,-1.22 0.35,-1.87 0.01,-0.21 -0.16,-0.39 -0.37,-0.4 -0.22,-0.01 -0.4,0.15 -0.42,0.36 -0.15,2.88 -2.14,5.33 -4.93,6.16l0.5 -2.27c0.05,-0.21 -0.09,-0.41 -0.3,-0.45 -0.21,-0.05 -0.42,0.08 -0.47,0.29l-0.86 3.95c-0.04,0.17 -0.2,0.3 -0.38,0.3l-1.7 0c-0.22,0 -0.39,-0.17 -0.39,-0.38l0 -1.51c0,-0.22 -0.17,-0.39 -0.39,-0.39 -0.22,0 -0.39,0.17 -0.39,0.39l0 0.37 -3.5 0c-0.39,0 -0.78,-0.03 -1.16,-0.09l0 -2.56c0,-0.21 -0.18,-0.38 -0.39,-0.38 -0.22,0 -0.4,0.17 -0.4,0.38l0 3.79c0,0.21 -0.17,0.38 -0.38,0.38l-1.55 0c-0.13,0 -0.24,-0.06 -0.31,-0.16l0 0c-0.66,-0.91 -2.8,-4.18 -2.8,-8.18 0,-1.69 0.64,-3.32 1.81,-4.57l-0.02 -0.02 0.02 0.02c1.06,-1.14 2.47,-1.89 4.01,-2.15 0.01,0.22 0.05,0.44 0.11,0.66l-0.1 0c-0.22,0 -0.4,0.17 -0.4,0.38 0,0.21 0.18,0.38 0.4,0.38l5.44 0c0.21,0 0.39,-0.17 0.39,-0.38 0,-0.21 -0.18,-0.38 -0.39,-0.38l-0.11 0c0.07,-0.25 0.11,-0.5 0.11,-0.75l1.16 0 0 0.75c0,0.21 0.18,0.38 0.39,0.38 0.22,0 0.4,-0.17 0.4,-0.38l0 -2.9c0.34,0.13 0.81,0.39 1.2,0.87 0.41,0.51 0.73,1.27 0.73,2.41 0,0.21 0.18,0.38 0.39,0.38 0.22,0 0.4,-0.17 0.4,-0.38 0,-0.14 -0.01,-0.28 -0.02,-0.43 0.86,0.42 1.63,1 2.25,1.72 0.75,0.87 1.27,1.92 1.5,3.02 0.08,0.36 0.4,0.62 0.77,0.62l0.93 0 0 3zm-12.82 -10.96c1.07,0 1.94,0.85 1.94,1.89 0,0.26 -0.06,0.52 -0.17,0.76l-3.55 0c-0.11,-0.24 -0.16,-0.5 -0.16,-0.76 0,-1.04 0.87,-1.89 1.94,-1.89z"/>
    <g>
     <path class="fil1" d="M25.12 19.7l0 0c0.23,-0.6 0.84,-1 1.52,-1 0.67,0 1.28,0.4 1.51,1 0,0 0,0 0,0l-0.02 0.01c0.07,0.19 -0.03,0.39 -0.22,0.46l-2.79 -0.47zm0 0c-0.08,0.2 0.03,0.42 0.23,0.5l-0.23 -0.5zm0 0l0.23 0.5 -0.23 -0.5zm0.23 0.5c0.2,0.07 0.43,-0.03 0.51,-0.23l-0.51 0.23zm2.44 0.02c0.04,0 0.09,-0.01 0.13,-0.02l-2.06 -0.23c0.11,-0.3 0.43,-0.51 0.78,-0.51 0.35,0 0.66,0.21 0.78,0.51 0.06,0.16 0.21,0.25 0.37,0.25z"/>
    </g>
    <path class="fil1" d="M20.14 21.21c-0.37,-0.25 -0.85,-0.41 -1.29,-0.53l0 -1.76c0.34,0.04 0.63,0.14 0.83,0.26 0.21,0.13 0.33,0.28 0.33,0.41 0,0.21 0.17,0.38 0.39,0.38 0.22,0 0.39,-0.17 0.39,-0.38 0,-0.38 -0.21,-0.71 -0.56,-0.97 -0.35,-0.25 -0.83,-0.42 -1.38,-0.47l0 -0.02c0,-0.21 -0.18,-0.38 -0.39,-0.38 -0.22,0 -0.4,0.17 -0.4,0.38l0 0.02c-0.55,0.05 -1.03,0.22 -1.37,0.47 -0.36,0.26 -0.57,0.59 -0.57,0.97 0,0.53 0.27,0.89 0.65,1.15 0.37,0.25 0.85,0.4 1.29,0.53l0 1.76c-0.34,-0.05 -0.62,-0.15 -0.83,-0.27 -0.21,-0.12 -0.32,-0.27 -0.32,-0.4 0,-0.21 -0.18,-0.38 -0.4,-0.38 -0.21,0 -0.39,0.17 -0.39,0.38 0,0.37 0.21,0.71 0.57,0.96 0.34,0.25 0.82,0.42 1.37,0.48l0 0.02c0,0.21 0.18,0.38 0.4,0.38 0.21,0 0.39,-0.17 0.39,-0.38l0 -0.02c0.55,-0.06 1.03,-0.23 1.38,-0.48 0.35,-0.25 0.56,-0.59 0.56,-0.96 0,-0.53 -0.27,-0.89 -0.65,-1.15zm-2.08 -2.29l0 1.54c-0.42,-0.13 -0.71,-0.26 -0.89,-0.4 -0.19,-0.14 -0.26,-0.29 -0.26,-0.47 0,-0.13 0.11,-0.28 0.32,-0.41 0.21,-0.12 0.49,-0.22 0.83,-0.26zm1.62 3.84c-0.2,0.13 -0.49,0.22 -0.83,0.27l0 -1.54c0.43,0.13 0.72,0.25 0.9,0.39 0.18,0.14 0.26,0.29 0.26,0.48 0,0.13 -0.12,0.28 -0.33,0.4z"/>
   </g>
  </g>
 </g>
</svg>
