<?xml version="1.0" encoding="UTF-8"?>
<!DOCTYPE svg PUBLIC "-//W3C//DTD SVG 1.1//EN" "http://www.w3.org/Graphics/SVG/1.1/DTD/svg11.dtd">
<!-- Creator: CorelDRAW 2020 (64-Bit) -->
<svg xmlns="http://www.w3.org/2000/svg" xml:space="preserve" width="114px" height="28px" version="1.1" style="shape-rendering:geometricPrecision; text-rendering:geometricPrecision; image-rendering:optimizeQuality; fill-rule:evenodd; clip-rule:evenodd"
viewBox="0 0 114 28.31"
 xmlns:xlink="http://www.w3.org/1999/xlink"
 xmlns:xodm="http://www.corel.com/coreldraw/odm/2003">
 <defs>
  <style type="text/css">
   <![CDATA[
    .fil0 {fill:#E3B873;fill-rule:nonzero}
   ]]>
  </style>
 </defs>
 <g id="Слой_x0020_1">
  <metadata id="CorelCorpID_0Corel-Layer"/>
  <path class="fil0" d="M0.72 15.21l28.61 0c0.39,0 0.72,0.32 0.72,0.72l0 0c0,0.41 -0.33,0.73 -0.72,0.73l-28.61 0c-0.39,0 -0.72,-0.32 -0.72,-0.73l0 0c0,-0.4 0.33,-0.72 0.72,-0.72z"/>
  <path class="fil0" d="M84.68 15.21l28.6 0c0.4,0 0.72,0.32 0.72,0.72l0 0c0,0.41 -0.32,0.73 -0.72,0.73l-28.6 0c-0.4,0 -0.73,-0.32 -0.73,-0.73l0 0c0,-0.4 0.33,-0.72 0.73,-0.72z"/>
  <path class="fil0" d="M71.15 21.38c-0.59,-0.42 -1.27,-0.64 -1.95,-0.67 -2.59,-1.7 -4.28,-2.97 -5.27,-3.95l-3.03 -3.04 1.84 -2.06c0.35,0.2 0.72,0.33 1.1,0.38 0.28,0.05 0.47,0.05 0.66,0.05 0.38,0 0.47,0 0.85,0.33 -0.19,0.14 -0.28,0.38 -0.28,0.61 0,0.24 0.09,0.52 0.28,0.71l1.65 1.65c0.24,0.28 0.61,0.42 0.99,0.42 0.38,0 0.75,-0.14 0.99,-0.47l3.35 -3.35c0.28,-0.23 0.42,-0.61 0.42,-0.99 0,-0.37 -0.14,-0.7 -0.42,-0.99l-1.65 -1.65c-0.19,-0.19 -0.43,-0.28 -0.66,-0.28 -0.24,0 -0.47,0.14 -0.66,0.28 -0.38,-0.33 -0.38,-0.42 -0.38,-0.8 0,-0.19 0,-0.42 -0.09,-0.71 -0.1,-0.66 -0.43,-1.32 -0.95,-1.84l-1.7 -1.69c-0.99,-0.99 -1.46,-1.47 -2.73,-2.03 -2.74,-1.28 -5.52,-1.04 -9.57,0.8 -0.24,0.09 -0.33,0.28 -0.29,0.52 0.05,0.23 0.24,0.38 0.47,0.38l0.62 0c2.07,0 3.16,0 5.04,1.88 0.83,0.83 0.85,2.09 0.11,3.03 -0.1,0.01 -0.17,0.06 -0.25,0.13l-2.09 2.34 -1.59 -1.58c-1.74,-1.74 -2.96,-3.39 -3.9,-5.22 -0.05,-0.93 -0.43,-1.8 -1.1,-2.47 -0.8,-0.8 -1.93,-1.18 -3.06,-1.09 -0.14,0.05 -0.28,0.15 -0.33,0.24 -0.1,0.14 -0.1,0.33 0,0.47l1.32 2.36c-0.28,0.61 -0.94,0.99 -1.6,0.94l-1.37 -2.26c-0.05,-0.14 -0.24,-0.24 -0.38,-0.24 -0.14,-0.04 -0.28,0.05 -0.38,0.19 -1.13,1.7 -0.7,3.96 0.99,5.14 0.59,0.42 1.25,0.65 1.92,0.7 0,0 0.01,0.01 0.02,0.01 1.84,0.94 3.49,2.17 5.23,3.91l1.73 1.69 -10.03 11.19c-0.38,0.38 -0.56,0.9 -0.56,1.41 0,0.52 0.18,1 0.56,1.37l0.66 0.66c0.38,0.33 0.85,0.52 1.32,0.52 0.47,0 0.99,-0.19 1.37,-0.56l10.01 -11.21 2.91 2.91c0.99,0.98 2.26,2.73 3.96,5.27 0.06,0.91 0.43,1.76 1.09,2.41 0.71,0.71 1.65,1.09 2.64,1.09 0.14,0 0.28,0 0.38,0 0.14,0 0.28,-0.1 0.38,-0.24 0.09,-0.14 0.09,-0.33 0,-0.47l-1.37 -2.31c0.33,-0.61 0.94,-0.99 1.65,-0.94l1.32 2.26c0.05,0.14 0.23,0.24 0.38,0.24 0.18,-0.05 0.33,-0.1 0.42,-0.24 1.13,-1.7 0.66,-3.96 -0.99,-5.14zm-10.75 -17.26c-1.51,-1.46 -2.64,-1.94 -3.92,-2.08 2.69,-0.85 4.67,-0.8 6.65,0.1 1.13,0.47 1.51,0.85 2.5,1.84l1.7 1.69c0.38,0.38 0.61,0.85 0.66,1.32 0.05,0.24 0.05,0.43 0.05,0.57 0,0.52 0.04,0.9 0.61,1.46 0.19,0.19 0.47,0.29 0.71,0.29 0.28,0 0.52,-0.1 0.66,-0.29l1.65 1.65c0.09,0.1 0.14,0.19 0.14,0.33 0,0.14 -0.05,0.24 -0.14,0.33l-3.35 3.35c-0.19,0.19 -0.47,0.19 -0.66,0l-1.65 -1.65c0.19,-0.14 0.28,-0.38 0.23,-0.66 0,-0.23 -0.09,-0.52 -0.28,-0.71 -0.56,-0.56 -0.94,-0.61 -1.46,-0.61 -0.14,0 -0.33,0 -0.57,-0.05 -0.51,-0.04 -0.94,-0.28 -1.32,-0.66l-2.02 -2.02c1.03,-1.28 0.94,-3.07 -0.19,-4.2zm-14.81 -1.13l0.99 1.69c0.09,0.14 0.23,0.24 0.38,0.24l0.23 0c1.09,0.05 2.08,-0.52 2.55,-1.46l0.09 -0.24c0.1,-0.14 0.1,-0.28 0,-0.42l-1.03 -1.8c0.56,0.1 1.08,0.38 1.5,0.81 0.49,0.52 0.8,1.19 0.82,1.9 -0.01,0.04 -0.01,0.08 -0.01,0.12 0,0.22 -0.03,0.44 -0.08,0.64 -0.18,0.68 -0.6,1.28 -1.2,1.68 -0.94,0.61 -2.21,0.61 -3.16,-0.05 -0.99,-0.71 -1.41,-1.98 -1.08,-3.11zm8.39 7.82c-1.41,-1.46 -2.83,-2.59 -4.34,-3.49 0.24,-0.09 0.52,-0.23 0.76,-0.37 0.71,-0.47 1.18,-1.09 1.46,-1.84 0.9,1.51 2.03,2.92 3.44,4.34l1.62 1.62 -1.27 1.41 -1.67 -1.67zm-6.27 16.23c-0.38,0.38 -0.99,0.42 -1.37,0.05l-0.66 -0.62c-0.19,-0.19 -0.28,-0.42 -0.28,-0.66 0,-0.28 0.09,-0.52 0.33,-0.75l0.27 -0.3 0.67 0.67c0.1,0.1 0.19,0.15 0.33,0.15 0.14,0 0.24,-0.05 0.33,-0.15 0.19,-0.18 0.19,-0.47 0,-0.66l-0.71 -0.71 0.62 -0.7 0.75 0.75c0.1,0.1 0.19,0.15 0.33,0.15 0.15,0 0.24,-0.05 0.33,-0.15 0.19,-0.18 0.19,-0.47 0,-0.66l-0.78 -0.78 12.13 -13.58 1.98 1.99 -1.95 2.17c-0.05,0.03 -0.1,0.06 -0.15,0.11l-1.89 2.12c-0.05,0.06 -0.09,0.12 -0.11,0.18l-10.17 11.38zm11.32 -11.23l1.29 -1.44 3.05 3.05c0.85,0.89 2.31,2.02 4.43,3.44 -0.28,0.09 -0.56,0.24 -0.85,0.42 -0.58,0.37 -1,0.88 -1.29,1.44 0,0.01 0,0.02 -0.01,0.02 -0.02,0.04 -0.03,0.07 -0.05,0.11 -0.02,0.04 -0.04,0.09 -0.06,0.14 -0.02,0.04 -0.03,0.07 -0.05,0.1 0,0.01 0,0.01 0,0.02 -0.02,0.03 -0.03,0.07 -0.05,0.11 -0.26,-0.4 -0.52,-0.77 -0.77,-1.12l0.63 -0.63c0.19,-0.19 0.19,-0.47 0,-0.66 -0.19,-0.19 -0.47,-0.19 -0.66,0l-0.52 0.53c-0.2,-0.27 -0.39,-0.52 -0.57,-0.75l0.43 -0.44c0.19,-0.19 0.19,-0.47 0,-0.66 -0.19,-0.19 -0.47,-0.19 -0.66,0l-0.36 0.36c-0.35,-0.42 -0.67,-0.77 -0.96,-1.07l-2.97 -2.97zm12.64 9.44l-0.99 -1.7c-0.1,-0.14 -0.24,-0.24 -0.38,-0.24l-0.24 0c-1.08,-0.09 -2.07,0.52 -2.54,1.46l-0.1 0.24c-0.09,0.14 -0.09,0.28 0,0.42l1.04 1.8c-0.56,-0.1 -1.08,-0.38 -1.51,-0.81 -0.47,-0.51 -0.78,-1.16 -0.81,-1.86 0.01,-0.04 0.01,-0.07 0.01,-0.12 0,-0.59 0.19,-1.15 0.52,-1.63 0.2,-0.28 0.46,-0.53 0.75,-0.72 0.48,-0.33 0.99,-0.48 1.56,-0.48 0.57,0 1.13,0.19 1.6,0.52 0.99,0.71 1.42,1.98 1.09,3.12z"/>
 </g>
</svg>
